SplineFontDB: 3.2
FontName: Caudex-Bold
FullName: Caudex Bold
FamilyName: Caudex
Weight: Bold
Copyright: Copyright (c) The Caudex Contributors (https://github.com/nidud/caudex)
Version: 2.0
ItalicAngle: 0
UnderlinePosition: -100
UnderlineWidth: 30
Ascent: 1638
Descent: 410
InvalidEm: 0
sfntRevision: 0x00020000
LayerCount: 2
Layer: 0 1 "Back" 1
Layer: 1 1 "Fore" 0
XUID: [1021 646 -1554209282 11953]
StyleMap: 0x0020
FSType: 0
OS2Version: 1
OS2_WeightWidthSlopeOnly: 0
OS2_UseTypoMetrics: 0
CreationTime: 1305227018
ModificationTime: 1706902113
PfmFamily: 17
TTFWeight: 700
TTFWidth: 5
LineGap: 0
VLineGap: 0
Panose: 2 4 8 2 5 5 5 3 3 4
OS2TypoAscent: 2034
OS2TypoAOffset: 0
OS2TypoDescent: -606
OS2TypoDOffset: 0
OS2TypoLinegap: 0
OS2WinAscent: 2034
OS2WinAOffset: 0
OS2WinDescent: 606
OS2WinDOffset: 0
HheadAscent: 2034
HheadAOffset: 0
HheadDescent: -606
HheadDOffset: 0
OS2SubXSize: 1285
OS2SubYSize: 1230
OS2SubXOff: 0
OS2SubYOff: 0
OS2SupXSize: 655
OS2SupYSize: 860
OS2SupXOff: 0
OS2SupYOff: 550
OS2StrikeYSize: 100
OS2StrikeYPos: 530
OS2FamilyClass: 260
OS2Vendor: 'PfEd'
OS2CodePages: e000009f.dfd70000
OS2UnicodeRanges: e40002ff.5000f8fb.00008008.00000000
DEI: 91125
TtTable: prep
PUSHW_1
 511
SCANCTRL
PUSHB_1
 4
SCANTYPE
EndTTInstrs
ShortTable: cvt  2
  68
  1297
EndShort
ShortTable: maxp 16
  1
  0
  39
  154
  2
  0
  0
  2
  0
  1
  1
  0
  64
  0
  0
  0
EndShort
LangName: 1033 "" "" "" "FontForge : Caudex Bold : 12-5-2011" "" "Version 2.0" "" "" "" "" "" "https://github.com/nidud/caudex/" "" "SIL Open Font License" "http://scripts.sil.org/OFL"
GaspTable: 1 65535 3 0
Encoding: UnicodeBmp
Compacted: 1
UnicodeInterp: none
NameList: AGL For New Fonts
DisplaySize: -96
AntiAlias: 1
FitToEm: 0
WinInfo: 0 8 2
BeginChars: 65539 45

StartChar: .notdef
Encoding: 65536 -1 0
Width: 748
GlyphClass: 1
Flags: W
LayerCount: 2
Fore
SplineSet
68 0 m 1,0,-1
 68 1365 l 1,1,-1
 612 1365 l 1,2,-1
 612 0 l 1,3,-1
 68 0 l 1,0,-1
136 68 m 1,4,-1
 544 68 l 1,5,-1
 544 1297 l 1,6,-1
 136 1297 l 1,7,-1
 136 68 l 1,4,-1
EndSplineSet
EndChar

StartChar: parenleft
Encoding: 40 40 3
Width: 628
GlyphClass: 1
Flags: W
LayerCount: 2
Fore
SplineSet
156 79 m 0,0,1
 59 329 59 329 59 567.5 c 128,-1,2
 59 806 59 806 156 1056 c 0,3,4
 255 1310 255 1310 570 1484 c 0,5,6
 589 1495 589 1495 605 1488 c 0,7,8
 616 1483 616 1483 618 1466 c 0,9,10
 619 1458 619 1458 619 1442 c 2,11,-1
 619 1412 l 2,12,13
 619 1403 619 1403 612 1397 c 0,14,15
 384 1199 384 1199 319.5 1023.5 c 128,-1,16
 255 848 255 848 255 567.5 c 128,-1,17
 255 287 255 287 320 111 c 0,18,19
 384 -63 384 -63 612 -261 c 0,20,21
 619 -267 619 -267 619 -276 c 2,22,-1
 619 -306 l 2,23,24
 619 -329 619 -329 617 -337 c 0,25,26
 613 -348 613 -348 605 -352 c 0,27,28
 595 -355 595 -355 593.5 -355 c 128,-1,29
 592 -355 592 -355 592 -355 c 0,30,31
 582 -355 582 -355 570 -348 c 0,32,33
 255 -174 255 -174 156 79 c 0,0,1
EndSplineSet
EndChar

StartChar: five
Encoding: 53 53 4
Width: 1100
GlyphClass: 1
Flags: W
LayerCount: 2
Fore
SplineSet
255 1175 m 1,0,-1
 255 779 l 1,1,2
 256 779 256 779 297.5 803.5 c 128,-1,3
 339 828 339 828 388 847 c 0,4,5
 483 885 483 885 593 885 c 0,6,7
 609 885 609 885 626 884 c 0,8,9
 783 872 783 872 897 734 c 1,10,11
 1004 595 1004 595 1004 425 c 2,12,-1
 1004 419 l 2,13,14
 1001 243 1001 243 856 98 c 0,15,16
 715 -43 715 -43 501 -43 c 2,17,-1
 492 -43 l 2,18,19
 362 -40 362 -40 290 -20 c 128,-1,20
 218 0 218 0 145 32 c 0,21,22
 89 54 89 54 86 101 c 0,23,24
 84 124 84 124 84 144 c 0,25,26
 84 212 84 212 110 238 c 0,27,28
 137 263 137 263 158 263 c 0,29,30
 174 263 174 263 184 253 c 0,31,32
 224 205 224 205 291 149 c 0,33,34
 349 99 349 99 455 99 c 2,35,-1
 463 99 l 2,36,37
 553 99 553 99 628 154.5 c 128,-1,38
 703 210 703 210 740 297 c 0,39,40
 765 357 765 357 765 425 c 0,41,42
 765 471 765 471 754 522 c 0,43,44
 726 642 726 642 624 699 c 0,45,46
 550 739 550 739 488 739 c 0,47,48
 460 739 460 739 435 732 c 0,49,50
 347 705 347 705 290 655 c 0,51,52
 256 626 256 626 227 621 c 0,53,54
 209 616 209 616 190 616 c 0,55,56
 181 616 181 616 175 617 c 0,57,58
 161 617 161 617 136 619 c 128,-1,59
 111 621 111 621 111 668 c 2,60,-1
 111 1320 l 2,61,62
 111 1362 111 1362 121 1373.5 c 128,-1,63
 131 1385 131 1385 181 1385 c 2,64,-1
 661 1385 l 2,65,66
 716 1385 716 1385 782 1381.5 c 128,-1,67
 848 1378 848 1378 918 1335 c 1,68,-1
 918 1125 l 1,69,70
 782 1175 782 1175 661 1175 c 2,71,-1
 255 1175 l 1,0,-1
EndSplineSet
EndChar

StartChar: at
Encoding: 64 64 5
Width: 2119
GlyphClass: 1
Flags: W
LayerCount: 2
Fore
SplineSet
1860 168 m 0,0,1
 1808 100 1808 100 1739 42 c 128,-1,2
 1670 -16 1670 -16 1589 -49 c 0,3,4
 1495 -89 1495 -89 1403 -89 c 0,5,6
 1334 -89 1334 -89 1267 -66 c 0,7,8
 1157 -28 1157 -28 1157 87 c 1,9,-1
 1157 61 l 1,10,-1
 883 -32 l 2,11,12
 846 -45 846 -45 819 -45 c 2,13,-1
 777 -45 l 1,14,15
 621 -37 621 -37 538 81 c 0,16,17
 474 171 474 171 474 300 c 0,18,19
 474 414 474 414 520 529 c 128,-1,20
 566 644 566 644 633 722 c 0,21,22
 672 769 672 769 750 819 c 0,23,24
 776 835 776 835 810 848 c 0,25,26
 897 878 897 878 984.5 908 c 128,-1,27
 1072 938 1072 938 1161 968 c 0,28,29
 1183 976 1183 976 1204 976 c 2,30,-1
 1210 976 l 2,31,32
 1278 973 1278 973 1365 942 c 0,33,34
 1375 939 1375 939 1379 937 c 0,35,36
 1396 929 1396 929 1425 918 c 0,37,38
 1432 916 1432 916 1437 916 c 0,39,40
 1444 916 1444 916 1451 920 c 0,41,42
 1475 937 1475 937 1484 946 c 0,43,44
 1497 962 1497 962 1519 962 c 0,45,46
 1529 962 1529 962 1539 958 c 0,47,48
 1571 944 1571 944 1571 922 c 2,49,-1
 1571 918 l 1,50,-1
 1404 196 l 2,51,52
 1395 157 1395 157 1395 128 c 0,53,54
 1395 55 1395 55 1450 41 c 0,55,56
 1464 37 1464 37 1479 37 c 0,57,58
 1511 37 1511 37 1550 53 c 0,59,60
 1614 77 1614 77 1665 125 c 0,61,62
 1752 204 1752 204 1810 356 c 0,63,64
 1869 511 1869 511 1869 699 c 0,65,66
 1869 1034 1869 1034 1667 1190 c 0,67,68
 1460 1350 1460 1350 1166 1350 c 0,69,70
 946 1350 946 1350 732 1240 c 0,71,72
 517 1131 517 1131 383 904 c 0,73,74
 247 677 247 677 247 387 c 0,75,76
 247 162 247 162 337 -22 c 0,77,78
 426 -202 426 -202 598 -304 c 0,79,80
 766 -404 766 -404 1005 -404 c 0,81,82
 1207 -404 1207 -404 1387 -333 c 0,83,84
 1551 -268 1551 -268 1677 -163 c 0,85,86
 1688 -152 1688 -152 1705 -152 c 0,87,88
 1723 -152 1723 -152 1736 -165 c 0,89,90
 1750 -179 1750 -179 1750 -196 c 0,91,92
 1750 -209 1750 -209 1743 -222 c 0,93,94
 1731 -249 1731 -249 1714 -265 c 0,95,96
 1563 -405 1563 -405 1370.5 -466 c 128,-1,97
 1178 -527 1178 -527 960 -527 c 0,98,99
 548 -527 548 -527 285 -267 c 0,100,101
 23 -9 23 -9 23 388 c 0,102,103
 23 839 23 839 350 1151 c 0,104,105
 679 1462 679 1462 1157 1462 c 0,106,107
 1541 1462 1541 1462 1793 1254 c 0,108,109
 2044 1044 2044 1044 2044 702 c 0,110,111
 2044 408 2044 408 1860 168 c 0,0,1
1165 159 m 1,112,-1
 1304 765 l 1,113,114
 1280 793 1280 793 1225.5 822.5 c 128,-1,115
 1171 852 1171 852 1126 854 c 2,116,-1
 1123 854 l 2,117,118
 1108 854 1108 854 1092 848 c 0,119,120
 1052 835 1052 835 1013 821.5 c 128,-1,121
 974 808 974 808 935 795 c 0,122,123
 914 787 914 787 898 773 c 0,124,125
 825 710 825 710 782.5 619 c 128,-1,126
 740 528 740 528 727 439 c 0,127,128
 719 393 719 393 719 352 c 0,129,130
 719 271 719 271 749 214 c 0,131,132
 792 130 792 130 874 105 c 0,133,134
 907 95 907 95 941 95 c 0,135,136
 952 95 952 95 964 96 c 0,137,138
 983 98 983 98 1013 108 c 0,139,140
 1035 115 1035 115 1088 133 c 128,-1,141
 1141 151 1141 151 1165 159 c 1,112,-1
EndSplineSet
EndChar

StartChar: D
Encoding: 68 68 6
Width: 1585
GlyphClass: 1
Flags: W
LayerCount: 2
Fore
SplineSet
1525 792 m 0,0,1
 1527 758 1527 758 1527 727 c 0,2,3
 1527 558 1527 558 1464 422 c 0,4,5
 1388 260 1388 260 1252 155 c 0,6,7
 1021 -23 1021 -23 689 -27 c 1,8,-1
 609 -27 l 2,9,10
 551 -27 551 -27 500 -26 c 2,11,-1
 383 -26 l 2,12,13
 299 -26 299 -26 256 -23 c 2,14,-1
 233 -23 l 2,15,16
 194 -23 194 -23 130 -29 c 1,17,18
 83 -29 83 -29 83 13 c 0,19,20
 83 51 83 51 133 69 c 128,-1,21
 183 87 183 87 183 139 c 2,22,-1
 183 1262 l 2,23,24
 183 1313 183 1313 133 1330.5 c 128,-1,25
 83 1348 83 1348 83 1387 c 0,26,27
 83 1428 83 1428 129 1428 c 0,28,29
 171 1427 171 1427 214 1427 c 0,30,31
 256 1427 256 1427 299 1428 c 0,32,33
 385 1431 385 1431 468 1433 c 2,34,-1
 527 1433 l 2,35,36
 681 1433 681 1433 837 1425 c 0,37,38
 1025 1414 1025 1414 1177 1349 c 0,39,40
 1321 1285 1321 1285 1415.5 1154 c 128,-1,41
 1510 1023 1510 1023 1525 792 c 0,0,1
424 1297 m 1,42,-1
 424 116 l 1,43,44
 526 97 526 97 637 97 c 0,45,46
 680 97 680 97 721 100 c 0,47,48
 868 111 868 111 981 171 c 0,49,50
 1115 241 1115 241 1193 388 c 0,51,52
 1265 524 1265 524 1265 736 c 2,53,-1
 1265 769 l 1,54,55
 1261 927 1261 927 1209.5 1033 c 128,-1,56
 1158 1139 1158 1139 1074 1201 c 0,57,58
 951 1293 951 1293 775 1309 c 0,59,60
 714 1314 714 1314 651 1314 c 0,61,62
 530 1314 530 1314 424 1297 c 1,42,-1
EndSplineSet
EndChar

StartChar: F
Encoding: 70 70 7
Width: 1139
GlyphClass: 1
Flags: W
LayerCount: 2
Fore
SplineSet
174 -20 m 2,0,1
 130 -20 130 -20 130 21 c 0,2,3
 130 43 130 43 161 62 c 0,4,5
 175 72 175 72 193.5 83.5 c 128,-1,6
 212 95 212 95 222 112 c 0,7,8
 230 128 230 128 230 146 c 2,9,-1
 230 1257 l 2,10,11
 230 1309 230 1309 180 1326.5 c 128,-1,12
 130 1344 130 1344 130 1383 c 0,13,14
 130 1424 130 1424 176 1424 c 2,15,-1
 1129 1424 l 1,16,-1
 1129 1147 l 2,17,18
 1129 1106 1129 1106 1083 1106 c 0,19,20
 1058 1106 1058 1106 1024 1156 c 0,21,22
 975 1224 975 1224 943 1257.5 c 128,-1,23
 911 1291 911 1291 863 1291 c 2,24,-1
 461 1291 l 1,25,-1
 461 788 l 1,26,-1
 665 788 l 2,27,28
 694 788 694 788 718 816 c 0,29,30
 735 836 735 836 748.5 863.5 c 128,-1,31
 762 891 762 891 795 891 c 0,32,33
 840 891 840 891 840 850 c 2,34,-1
 840 596 l 2,35,36
 840 555 840 555 795 555 c 0,37,38
 760 555 760 555 745 586 c 128,-1,39
 730 617 730 617 711 638 c 0,40,41
 691 658 691 658 665 658 c 2,42,-1
 461 658 l 1,43,-1
 461 146 l 2,44,45
 461 122 461 122 471 106 c 0,46,47
 481 92 481 92 496.5 82 c 128,-1,48
 512 72 512 72 527 63 c 0,49,50
 560 43 560 43 560 21 c 0,51,52
 560 13 560 13 558 5 c 0,53,54
 543 -20 543 -20 515 -20 c 2,55,-1
 174 -20 l 2,0,1
EndSplineSet
EndChar

StartChar: c
Encoding: 99 99 8
Width: 925
GlyphClass: 1
Flags: W
LayerCount: 2
Fore
SplineSet
554 976 m 1,0,-1
 576 976 l 2,1,2
 748 976 748 976 902 877 c 1,3,-1
 884 697 l 2,4,5
 879 666 879 666 846 666 c 2,6,-1
 842 666 l 2,7,8
 814 669 814 669 801 700 c 0,9,10
 764 781 764 781 705 816 c 0,11,12
 648 850 648 850 564 850 c 2,13,-1
 541 850 l 1,14,15
 443 845 443 845 390 794 c 0,16,17
 341 746 341 746 317 677 c 0,18,19
 292 606 292 606 292 519 c 0,20,21
 292 490 292 490 295 459 c 0,22,23
 305 315 305 315 372 224 c 0,24,25
 460 107 460 107 564 92 c 0,26,27
 580 89 580 89 598 89 c 0,28,29
 680 89 680 89 783 146 c 0,30,31
 847 180 847 180 874 180 c 0,32,33
 888 180 888 180 900 172 c 0,34,35
 909 163 909 163 909 150 c 0,36,37
 909 135 909 135 895 105 c 0,38,39
 879 71 879 71 855 50 c 0,40,41
 795 -4 795 -4 706.5 -24.5 c 128,-1,42
 618 -45 618 -45 540 -45 c 0,43,44
 344 -44 344 -44 210.5 64 c 128,-1,45
 77 172 77 172 59 371 c 0,46,47
 55 415 55 415 55 458 c 0,48,49
 55 513 55 513 62 565 c 0,50,51
 76 657 76 657 133 748 c 0,52,53
 193 845 193 845 302.5 907.5 c 128,-1,54
 412 970 412 970 554 976 c 1,0,-1
EndSplineSet
EndChar

StartChar: currency
Encoding: 164 164 9
Width: 1024
GlyphClass: 1
Flags: W
LayerCount: 2
Fore
SplineSet
513 712 m 0,0,1
 418 712 418 712 349.5 643 c 128,-1,2
 281 574 281 574 281 475 c 256,3,4
 281 376 281 376 349.5 307.5 c 128,-1,5
 418 239 418 239 513 239 c 0,6,7
 606 239 606 239 675 307.5 c 128,-1,8
 744 376 744 376 744 475 c 256,9,10
 744 574 744 574 675 643 c 128,-1,11
 606 712 606 712 513 712 c 0,0,1
513 842 m 256,12,13
 639 842 639 842 720 780 c 1,14,-1
 849 909 l 2,15,16
 861 921 861 921 878 921 c 0,17,18
 897 921 897 921 907 908 c 2,19,-1
 954 862 l 2,20,21
 963 851 963 851 963 840 c 0,22,23
 963 828 963 828 951 816 c 2,24,-1
 818 684 l 1,25,26
 884 598 884 598 884 476 c 0,27,28
 884 352 884 352 818 268 c 1,29,-1
 953 135 l 2,30,31
 963 123 963 123 963 112 c 256,32,33
 963 101 963 101 954 90 c 2,34,-1
 906 44 l 2,35,36
 894 31 894 31 877 31 c 0,37,38
 859 31 859 31 847 45 c 2,39,-1
 720 172 l 1,40,41
 640 111 640 111 513 111 c 256,42,43
 386 111 386 111 306 172 c 1,44,-1
 178 43 l 2,45,46
 166 31 166 31 149 31 c 256,47,48
 132 31 132 31 121 42 c 2,49,-1
 75 88 l 2,50,51
 63 100 63 100 63 112 c 256,52,53
 63 124 63 124 76 137 c 2,54,-1
 208 269 l 1,55,56
 143 354 143 354 143 476 c 0,57,58
 143 597 143 597 208 683 c 1,59,-1
 75 817 l 2,60,61
 63 827 63 827 63 840 c 0,62,63
 63 852 63 852 75 864 c 2,64,-1
 121 910 l 2,65,66
 132 921 132 921 149 921 c 256,67,68
 166 921 166 921 178 909 c 2,69,-1
 306 780 l 1,70,71
 387 842 387 842 513 842 c 256,12,13
EndSplineSet
EndChar

StartChar: uni018F
Encoding: 399 399 10
Width: 1316
GlyphClass: 1
Flags: W
LayerCount: 2
Fore
SplineSet
110 695 m 2,0,-1
 1040 695 l 1,1,2
 1031 905 1031 905 931 1031 c 0,3,4
 799 1198 799 1198 604 1237 c 1,5,6
 604 1237 604 1237 604 1238 c 0,7,8
 570 1245 570 1245 532 1245 c 0,9,10
 376 1245 376 1245 182 1117 c 0,11,12
 148 1095 148 1095 125 1095 c 0,13,14
 107 1095 107 1095 96 1106 c 128,-1,15
 85 1117 85 1117 85 1140 c 0,16,17
 85 1153 85 1153 95 1169 c 0,18,19
 111 1193 111 1193 158 1235 c 0,20,21
 345 1408 345 1408 586 1408 c 2,22,-1
 589 1408 l 2,23,24
 967 1407 967 1407 1159 1163 c 0,25,26
 1306 976 1306 976 1306 722 c 0,27,28
 1306 646 1306 646 1293 564 c 0,29,30
 1253 296 1253 296 1080 136 c 0,31,32
 904 -27 904 -27 621 -29 c 0,33,34
 329 -29 329 -29 176 137 c 0,35,36
 24 302 24 302 24 568 c 0,37,38
 25 626 25 626 28 650 c 0,39,40
 30 665 30 665 40 675 c 0,41,42
 60 695 60 695 110 695 c 2,0,-1
645 103 m 0,43,44
 829 103 829 103 934 264 c 0,45,46
 1003 370 1003 370 1038 569 c 1,47,-1
 232 569 l 1,48,49
 236 315 236 315 347 205 c 0,50,51
 448 103 448 103 645 103 c 0,43,44
EndSplineSet
EndChar

StartChar: uni0195
Encoding: 405 405 11
Width: 1771
GlyphClass: 1
Flags: W
LayerCount: 2
Fore
SplineSet
1697 413 m 2,0,1
 1698 400 1698 400 1698 386 c 0,2,3
 1698 263 1698 263 1644 176 c 0,4,5
 1584 78 1584 78 1366 6 c 0,6,7
 1270 -25 1270 -25 1189 -30 c 0,8,9
 1179 -31 1179 -31 1168 -31 c 0,10,11
 1092 -31 1092 -31 1015 6 c 0,12,13
 912 56 912 56 871 153 c 0,14,15
 828 250 828 250 828 483 c 2,16,-1
 828 504 l 2,17,18
 828 690 828 690 738 780 c 0,19,20
 684 832 684 832 613 832 c 0,21,22
 569 832 569 832 518 813 c 2,23,-1
 391 766 l 1,24,-1
 391 142 l 2,25,26
 391 92 391 92 439.5 74.5 c 128,-1,27
 488 57 488 57 488 20 c 0,28,29
 488 -20 488 -20 443 -20 c 2,30,-1
 114 -20 l 2,31,32
 69 -20 69 -20 69 20 c 0,33,34
 69 57 69 57 117.5 74.5 c 128,-1,35
 166 92 166 92 166 142 c 2,36,-1
 166 1222 l 2,37,38
 166 1272 166 1272 117.5 1289.5 c 128,-1,39
 69 1307 69 1307 69 1344 c 0,40,41
 69 1385 69 1385 113 1385 c 0,42,43
 173 1388 173 1388 233.5 1404 c 128,-1,44
 294 1420 294 1420 391 1453 c 1,45,-1
 391 867 l 1,46,-1
 558 930 l 2,47,48
 621 954 621 954 684 954 c 0,49,50
 700 954 700 954 718 953 c 0,51,52
 796 944 796 944 856 911 c 0,53,54
 965 849 965 849 1005 752 c 0,55,56
 1042 659 1042 659 1042 427 c 2,57,-1
 1042 414 l 2,58,59
 1042 328 1042 328 1060.5 257 c 128,-1,60
 1079 186 1079 186 1112 159 c 0,61,62
 1149 127 1149 127 1204 99 c 0,63,64
 1225 88 1225 88 1254 88 c 0,65,66
 1292 88 1292 88 1345 105 c 0,67,68
 1472 149 1472 149 1477 231 c 0,69,70
 1484 340 1484 340 1484 452 c 2,71,-1
 1484 480 l 2,72,73
 1483 605 1483 605 1483 731 c 0,74,75
 1483 780 1483 780 1431 797.5 c 128,-1,76
 1379 815 1379 815 1379 853 c 0,77,78
 1379 893 1379 893 1424 893 c 0,79,80
 1476 895 1476 895 1531 909 c 0,81,82
 1565 917 1565 917 1596.5 927 c 128,-1,83
 1628 937 1628 937 1697 961 c 1,84,-1
 1697 413 l 2,0,1
EndSplineSet
EndChar

StartChar: uni0283
Encoding: 643 643 12
Width: 625
GlyphClass: 1
Flags: W
LayerCount: 2
Fore
SplineSet
438 1027 m 2,0,-1
 438 12 l 2,1,2
 438 -187 438 -187 410.5 -286 c 128,-1,3
 383 -385 383 -385 315 -457 c 0,4,5
 219 -556 219 -556 67 -594 c 1,6,-1
 67 -507 l 1,7,8
 165 -448 165 -448 195 -353 c 0,9,10
 206 -314 206 -314 206.5 -241 c 128,-1,11
 207 -168 207 -168 207 6 c 2,12,-1
 207 1027 l 2,13,14
 207 1156 207 1156 231 1238 c 0,15,16
 247 1293 247 1293 277 1330 c 0,17,18
 294 1352 294 1352 326 1363 c 2,19,-1
 581 1458 l 2,20,21
 594 1463 594 1463 624 1465 c 2,22,-1
 629 1465 l 2,23,24
 659 1465 659 1465 686 1448 c 0,25,26
 717 1426 717 1426 728 1408 c 0,27,28
 736 1392 736 1392 736 1368 c 0,29,30
 736 1359 736 1359 735 1350 c 0,31,32
 732 1290 732 1290 701 1281 c 1,33,-1
 694 1281 l 2,34,35
 674 1281 674 1281 646 1301 c 0,36,37
 605 1327 605 1327 567 1327 c 0,38,39
 545 1327 545 1327 523 1318 c 0,40,41
 452 1288 452 1288 443 1197 c 0,42,43
 439 1160 439 1160 438.5 1116.5 c 128,-1,44
 438 1073 438 1073 438 1027 c 2,0,-1
EndSplineSet
EndChar

StartChar: uni034A
Encoding: 842 842 13
Width: 0
GlyphClass: 1
Flags: W
LayerCount: 2
Fore
SplineSet
-189 1331 m 1,0,1
 -161 1316 -161 1316 -133 1316 c 256,2,3
 -105 1316 -105 1316 -80 1337 c 0,4,5
 -44 1365 -44 1365 -18 1436 c 0,6,7
 -7 1462 -7 1462 20 1462 c 0,8,9
 29 1462 29 1462 34 1459 c 0,10,11
 59 1453 59 1453 64 1421 c 1,12,-1
 64 1415 l 2,13,14
 64 1403 64 1403 60 1393 c 0,15,16
 21 1278 21 1278 -22 1224 c 0,17,18
 -71 1159 -71 1159 -131 1159 c 256,19,20
 -191 1159 -191 1159 -286 1216.5 c 128,-1,21
 -381 1274 -381 1274 -428 1302 c 0,22,23
 -483 1333 -483 1333 -506 1372 c 0,24,25
 -523 1402 -523 1402 -523 1433 c 0,26,27
 -523 1474 -523 1474 -491 1519 c 0,28,29
 -442 1586 -442 1586 -397 1651 c 0,30,31
 -375 1680 -375 1680 -346 1680 c 0,32,33
 -338 1680 -338 1680 -327 1678 c 0,34,35
 -299 1666 -299 1666 -299 1646 c 0,36,37
 -299 1637 -299 1637 -307 1625 c 0,38,39
 -333 1586 -333 1586 -345 1556 c 0,40,41
 -356 1529 -356 1529 -364 1494 c 0,42,43
 -365 1487 -365 1487 -365 1480 c 0,44,45
 -365 1433 -365 1433 -311 1398 c 1,46,47
 -303 1412 -303 1412 -275 1447.5 c 128,-1,48
 -247 1483 -247 1483 -223 1518 c 0,49,50
 -201 1547 -201 1547 -172 1547 c 0,51,52
 -161 1547 -161 1547 -151 1543 c 0,53,54
 -125 1532 -125 1532 -125 1512 c 0,55,56
 -125 1503 -125 1503 -132 1493 c 0,57,58
 -158 1455 -158 1455 -171 1422 c 0,59,60
 -183 1395 -183 1395 -189 1361 c 0,61,62
 -190 1359 -190 1359 -190 1353 c 0,63,64
 -190 1341 -190 1341 -189 1331 c 1,0,1
EndSplineSet
EndChar

StartChar: uni0371
Encoding: 881 881 14
Width: 961
GlyphClass: 1
Flags: W
LayerCount: 2
Fore
SplineSet
330 615 m 2,0,1
 330 722 330 722 291 763.5 c 128,-1,2
 252 805 252 805 203.5 819 c 128,-1,3
 155 833 155 833 101.5 838 c 128,-1,4
 48 843 48 843 48 890 c 0,5,6
 48 931 48 931 92 931 c 0,7,8
 154 934 154 934 208 934 c 0,9,10
 235 934 235 934 260 933 c 0,11,12
 336 931 336 931 392 913 c 0,13,14
 476 887 476 887 516 817 c 0,15,16
 549 760 549 760 555 667 c 1,17,-1
 555 603 l 1,18,-1
 966 603 l 1,19,-1
 966 473 l 1,20,-1
 555 473 l 1,21,-1
 555 142 l 2,22,23
 555 92 555 92 603.5 74.5 c 128,-1,24
 652 57 652 57 652 20 c 0,25,26
 652 -20 652 -20 607 -20 c 2,27,-1
 278 -20 l 2,28,29
 232 -20 232 -20 232 20 c 0,30,31
 232 57 232 57 281 74.5 c 128,-1,32
 330 92 330 92 330 142 c 2,33,-1
 330 615 l 2,0,1
EndSplineSet
EndChar

StartChar: theta1
Encoding: 977 977 15
Width: 1140
GlyphClass: 1
Flags: W
LayerCount: 2
Fore
SplineSet
783 1254 m 0,0,1
 848 1174 848 1174 914 1071 c 128,-1,2
 980 968 980 968 1032 852 c 0,3,4
 1082 737 1082 737 1110 616 c 0,5,6
 1127 534 1127 534 1127 455 c 0,7,8
 1127 416 1127 416 1123 378 c 0,9,10
 1102 205 1102 205 986 79 c 0,11,12
 877 -37 877 -37 723 -45 c 1,13,-1
 680 -45 l 2,14,15
 652 -45 652 -45 618 -32 c 2,16,-1
 344 69 l 1,17,18
 252 94 252 94 218 120 c 0,19,20
 181 145 181 145 170 191 c 0,21,22
 160 227 160 227 160 303 c 2,23,-1
 161 608 l 2,24,25
 161 655 161 655 159 714 c 0,26,27
 156 775 156 775 152 817.5 c 128,-1,28
 148 860 148 860 148 920 c 0,29,30
 148 944 148 944 181 958 c 0,31,32
 190 962 190 962 201 962 c 0,33,34
 222 962 222 962 248 942 c 1,35,36
 332 801 332 801 358 700 c 0,37,38
 374 633 374 633 378 541 c 0,39,40
 379 507 379 507 379 471 c 2,41,-1
 379 435 l 2,42,43
 378 378 378 378 378 308 c 0,44,45
 378 239 378 239 383 216 c 0,46,47
 390 177 390 177 415 156 c 0,48,49
 441 135 441 135 514 107 c 0,50,51
 540 98 540 98 558 96 c 0,52,53
 570 95 570 95 582 95 c 0,54,55
 616 95 616 95 650 105 c 0,56,57
 740 130 740 130 806 217 c 0,58,59
 877 315 877 315 888 455 c 0,60,61
 891 491 891 491 891 526 c 0,62,63
 891 633 891 633 866 743 c 0,64,65
 800 1031 800 1031 656 1189 c 1,66,67
 609 1147 609 1147 527 1124.5 c 128,-1,68
 445 1102 445 1102 360 1102 c 0,69,70
 282 1102 282 1102 159 1141 c 0,71,72
 26 1183 26 1183 26 1292 c 2,73,-1
 26 1297 l 2,74,75
 29 1407 29 1407 155 1445 c 128,-1,76
 281 1483 281 1483 358 1484 c 2,77,-1
 367 1484 l 2,78,79
 438 1484 438 1484 510 1469 c 0,80,81
 589 1452 589 1452 623 1424 c 1,82,83
 623 1425 623 1425 637 1462 c 1,84,-1
 818 1442 l 1,85,86
 790 1357 790 1357 747 1296 c 1,87,88
 750 1293 750 1293 760 1281 c 128,-1,89
 770 1269 770 1269 783 1254 c 0,0,1
558 1305 m 1,90,91
 464 1400 464 1400 354 1400 c 2,92,-1
 348 1400 l 2,93,94
 198 1398 198 1398 198 1292 c 0,95,96
 198 1247 198 1247 241.5 1215 c 128,-1,97
 285 1183 285 1183 348 1183 c 256,98,99
 411 1183 411 1183 479 1229 c 128,-1,100
 547 1275 547 1275 558 1305 c 1,90,91
EndSplineSet
EndChar

StartChar: uni03DB
Encoding: 987 987 16
Width: 1282
GlyphClass: 1
Flags: W
LayerCount: 2
Fore
SplineSet
917 925 m 2,0,1
 1081 925 1081 925 1125.5 935.5 c 128,-1,2
 1170 946 1170 946 1215 994 c 0,3,4
 1228 1007 1228 1007 1242 1007 c 0,5,6
 1269 1007 1269 1007 1269 982 c 0,7,8
 1270 964 1270 964 1270 946 c 2,9,-1
 1270 928 l 2,10,11
 1269 901 1269 901 1269 874 c 0,12,13
 1265 800 1265 800 1147 782 c 128,-1,14
 1029 764 1029 764 940 764 c 0,15,16
 662 761 662 761 506 729 c 0,17,18
 374 702 374 702 374 467 c 0,19,20
 374 452 374 452 375 436 c 0,21,22
 378 324 378 324 402 233.5 c 128,-1,23
 426 143 426 143 445 138 c 2,24,-1
 719 60 l 2,25,26
 798 34 798 34 853 -37.5 c 128,-1,27
 908 -109 908 -109 910 -190 c 2,28,-1
 910 -192 l 2,29,30
 910 -312 910 -312 814 -412 c 0,31,32
 754 -474 754 -474 686 -517 c 128,-1,33
 618 -560 618 -560 520 -582 c 0,34,35
 483 -590 483 -590 431 -590 c 0,36,37
 411 -590 411 -590 388 -589 c 0,38,39
 359 -587 359 -587 328 -578 c 2,40,-1
 195 -537 l 1,41,-1
 290 -480 l 1,42,-1
 314 -480 l 1,43,44
 394 -475 394 -475 466.5 -435 c 128,-1,45
 539 -395 539 -395 592 -343 c 0,46,47
 673 -259 673 -259 683 -182 c 0,48,49
 684 -173 684 -173 684 -163 c 0,50,51
 684 -127 684 -127 668 -92 c 0,52,53
 649 -53 649 -53 598 -38 c 0,54,55
 400 20 400 20 264 93 c 128,-1,56
 128 166 128 166 128 449 c 0,57,58
 128 478 128 478 138 555.5 c 128,-1,59
 148 633 148 633 206 715 c 128,-1,60
 264 797 264 797 390 861 c 128,-1,61
 516 925 516 925 744 925 c 2,62,-1
 917 925 l 2,0,1
EndSplineSet
EndChar

StartChar: uni0416
Encoding: 1046 1046 17
Width: 1908
GlyphClass: 1
Flags: W
LayerCount: 2
Fore
SplineSet
1567 -20 m 2,0,1
 1530 -20 1530 -20 1530 21 c 0,2,3
 1530 36 1530 36 1540.5 48 c 128,-1,4
 1551 60 1551 60 1551 68 c 128,-1,5
 1551 76 1551 76 1541 87 c 128,-1,6
 1531 98 1531 98 1063 637 c 1,7,-1
 1063 147 l 2,8,9
 1063 95 1063 95 1100 82 c 0,10,11
 1163 60 1163 60 1163 23 c 0,12,13
 1163 -20 1163 -20 1122 -20 c 2,14,-1
 783 -20 l 2,15,16
 765 -20 765 -20 754 -9 c 128,-1,17
 743 2 743 2 743 22 c 0,18,19
 743 61 743 61 806 82 c 0,20,21
 843 95 843 95 843 146 c 2,22,-1
 843 644 l 1,23,24
 369 97 369 97 359 86.5 c 128,-1,25
 349 76 349 76 349 68 c 128,-1,26
 349 60 349 60 359.5 48 c 128,-1,27
 370 36 370 36 370 21 c 0,28,29
 370 -20 370 -20 333 -20 c 2,30,-1
 62 -20 l 2,31,32
 26 -20 26 -20 26 19 c 0,33,34
 26 47 26 47 48 60 c 128,-1,35
 70 73 70 73 77.5 82 c 128,-1,36
 85 91 85 91 676 772 c 1,37,-1
 364 1152 l 2,38,39
 338 1184 338 1184 311.5 1184 c 128,-1,40
 285 1184 285 1184 258 1170 c 2,41,-1
 203 1141 l 2,42,43
 199 1139 199 1139 195 1139 c 0,44,45
 194 1139 194 1139 192 1139 c 0,46,47
 179 1139 179 1139 175 1153 c 0,48,49
 133 1299 133 1299 131.5 1305 c 128,-1,50
 130 1311 130 1311 130 1326.5 c 128,-1,51
 130 1342 130 1342 141 1350.5 c 128,-1,52
 152 1359 152 1359 238 1411 c 0,53,54
 261 1425 261 1425 285 1425 c 128,-1,55
 309 1425 309 1425 325.5 1408.5 c 128,-1,56
 342 1392 342 1392 361.5 1367.5 c 128,-1,57
 381 1343 381 1343 455 1254 c 2,58,-1
 843 795 l 1,59,-1
 843 1256 l 2,60,61
 843 1307 843 1307 806 1320 c 0,62,63
 743 1342 743 1342 743 1380 c 0,64,65
 743 1424 743 1424 784 1424 c 2,66,-1
 1122 1424 l 2,67,68
 1140 1424 1140 1424 1151.5 1412.5 c 128,-1,69
 1163 1401 1163 1401 1163 1381 c 0,70,71
 1163 1342 1163 1342 1100 1320 c 0,72,73
 1063 1307 1063 1307 1063 1256 c 2,74,-1
 1063 802 l 1,75,-1
 1444 1254 l 2,76,77
 1519 1343 1519 1343 1538 1367 c 128,-1,78
 1557 1391 1557 1391 1574 1408 c 128,-1,79
 1591 1425 1591 1425 1615 1425 c 128,-1,80
 1639 1425 1639 1425 1661 1411 c 2,81,-1
 1725 1372 l 2,82,83
 1751 1356 1751 1356 1760.5 1346.5 c 128,-1,84
 1770 1337 1770 1337 1770 1323.5 c 128,-1,85
 1770 1310 1770 1310 1766 1299 c 2,86,-1
 1725 1154 l 2,87,88
 1721 1139 1721 1139 1708 1139 c 0,89,90
 1702 1139 1702 1139 1697 1141 c 2,91,-1
 1642 1170 l 2,92,93
 1616 1184 1616 1184 1588.5 1184 c 128,-1,94
 1561 1184 1561 1184 1535 1152 c 2,95,-1
 1224 772 l 1,96,97
 1814 90 1814 90 1821.5 81.5 c 128,-1,98
 1829 73 1829 73 1851.5 60.5 c 128,-1,99
 1874 48 1874 48 1874 18 c 0,100,101
 1874 -20 1874 -20 1838 -20 c 2,102,-1
 1567 -20 l 2,0,1
EndSplineSet
EndChar

StartChar: uni0459
Encoding: 1113 1113 18
Width: 1409
GlyphClass: 1
Flags: W
LayerCount: 2
Fore
SplineSet
1017 448 m 2,0,1
 974 448 974 448 942 446 c 1,2,-1
 942 93 l 1,3,4
 980 77 980 77 1019 77 c 0,5,6
 1124 77 1124 77 1175.5 128.5 c 128,-1,7
 1227 180 1227 180 1227 260.5 c 128,-1,8
 1227 341 1227 341 1171.5 394.5 c 128,-1,9
 1116 448 1116 448 1029 448 c 2,10,-1
 1017 448 l 2,0,1
669 -20 m 2,11,12
 628 -20 628 -20 628 20 c 128,-1,13
 628 60 628 60 691 82 c 0,14,15
 728 95 728 95 728 146 c 2,16,-1
 728 774 l 2,17,18
 728 811 728 811 708 827 c 1,19,-1
 394 827 l 1,20,-1
 394 403 l 2,21,22
 394 262 394 262 369 189 c 128,-1,23
 344 116 344 116 262 57.5 c 128,-1,24
 180 -1 180 -1 64 -22 c 0,25,26
 62 -22 62 -22 57 -22 c 128,-1,27
 52 -22 52 -22 46 -16 c 128,-1,28
 40 -10 40 -10 40 -2 c 2,29,-1
 40 33 l 2,30,31
 40 46 40 46 52 51 c 0,32,33
 142 89 142 89 169 153 c 0,34,35
 180 178 180 178 180 227.5 c 128,-1,36
 180 277 180 277 180 399 c 2,37,-1
 180 817 l 2,38,39
 180 846 180 846 143 856 c 0,40,41
 80 872 80 872 80 905 c 0,42,43
 80 949 80 949 121 949 c 2,44,-1
 1002 949 l 2,45,46
 1042 949 1042 949 1042 909 c 0,47,48
 1042 871 1042 871 979 848 c 0,49,50
 942 835 942 835 942 785 c 2,51,-1
 942 547 l 1,52,-1
 1074 547 l 2,53,54
 1145 547 1145 547 1232 521 c 128,-1,55
 1319 495 1319 495 1362 419.5 c 128,-1,56
 1405 344 1405 344 1405 254 c 0,57,58
 1405 84 1405 84 1237 8 c 0,59,60
 1176 -20 1176 -20 1099 -20 c 2,61,-1
 669 -20 l 2,11,12
EndSplineSet
EndChar

StartChar: uni046A
Encoding: 1130 1130 19
Width: 1513
GlyphClass: 1
Flags: W
LayerCount: 2
Fore
SplineSet
1077 1204 m 0,0,1
 1077 1205 1077 1205 1076 1206 c 0,2,3
 1067 1253 1067 1253 1054 1279 c 2,4,-1
 1043 1302 l 1,5,-1
 469 1302 l 1,6,7
 471 1289 471 1289 481 1274 c 2,8,9
 481 1274 481 1274 802 766 c 1,10,11
 1044 1135 1044 1135 1045 1135 c 0,12,13
 1064 1162 1064 1162 1070.5 1179 c 128,-1,14
 1077 1196 1077 1196 1077 1204 c 0,0,1
1173 1436 m 2,15,16
 1184 1441 1184 1441 1198 1441 c 0,17,18
 1218 1441 1218 1441 1234 1416 c 0,19,20
 1234 1415 1234 1415 1295 1314 c 0,21,22
 1309 1290 1309 1290 1309 1258 c 0,23,24
 1309 1223 1309 1223 1260 1173 c 0,25,26
 1218 1129 1218 1129 1159 1043 c 2,27,-1
 939 723 l 1,28,29
 1028 742 1028 742 1098 742 c 0,30,31
 1188 742 1188 742 1269 696 c 0,32,33
 1394 625 1394 625 1394 380 c 2,34,-1
 1394 110 l 2,35,36
 1394 90 1394 90 1403.5 80.5 c 128,-1,37
 1413 71 1413 71 1429 67 c 0,38,39
 1468 56 1468 56 1483 42 c 0,40,41
 1494 31 1494 31 1494 16 c 128,-1,42
 1494 1 1494 1 1483.5 -9.5 c 128,-1,43
 1473 -20 1473 -20 1454 -20 c 2,44,-1
 1121 -20 l 2,45,46
 1101 -20 1101 -20 1090.5 -9.5 c 128,-1,47
 1080 1 1080 1 1080 16 c 128,-1,48
 1080 31 1080 31 1091 43 c 0,49,50
 1106 58 1106 58 1145 68 c 0,51,52
 1161 72 1161 72 1170.5 81.5 c 128,-1,53
 1180 91 1180 91 1180 110 c 2,54,-1
 1180 380 l 2,55,56
 1180 534 1180 534 1097 594 c 0,57,58
 1044 633 1044 633 990.5 633 c 128,-1,59
 937 633 937 633 879 621 c 1,60,61
 867 578 867 578 867 514 c 2,62,-1
 867 146 l 2,63,64
 867 111 867 111 883 95 c 0,65,66
 891 87 891 87 904 82 c 0,67,68
 967 60 967 60 967 23 c 0,69,70
 967 3 967 3 955.5 -8.5 c 128,-1,71
 944 -20 944 -20 926 -20 c 2,72,-1
 587 -20 l 2,73,74
 569 -20 569 -20 557.5 -8.5 c 128,-1,75
 546 3 546 3 546 22 c 128,-1,76
 546 41 546 41 561 56 c 128,-1,77
 576 71 576 71 609 82 c 0,78,79
 621 86 621 86 630 95 c 0,80,81
 646 111 646 111 646 146 c 2,82,-1
 646 573 l 2,83,84
 646 599 646 599 640 621 c 1,85,86
 584 633 584 633 534 633 c 0,87,88
 530 632 530 632 527 632 c 0,89,90
 472 632 472 632 420 594 c 0,91,92
 337 534 337 534 337 380 c 2,93,-1
 337 110 l 2,94,95
 337 90 337 90 346.5 80.5 c 128,-1,96
 356 71 356 71 372 67 c 0,97,98
 411 56 411 56 426 42 c 0,99,100
 437 31 437 31 437 16 c 128,-1,101
 437 1 437 1 426.5 -9.5 c 128,-1,102
 416 -20 416 -20 396 -20 c 2,103,-1
 63 -20 l 2,104,105
 44 -20 44 -20 33.5 -9.5 c 128,-1,106
 23 1 23 1 23 16 c 128,-1,107
 23 31 23 31 34 43 c 0,108,109
 49 58 49 58 88 68 c 0,110,111
 104 72 104 72 113.5 81.5 c 128,-1,112
 123 91 123 91 123 110 c 2,113,-1
 123 380 l 2,114,115
 123 626 123 626 248 696 c 0,116,117
 329 742 329 742 421 742 c 128,-1,118
 513 742 513 742 570 727 c 2,119,-1
 587 722 l 1,120,-1
 272 1247 l 2,121,122
 238 1297 238 1297 152 1331 c 0,123,124
 102 1349 102 1349 89 1367 c 0,125,126
 80 1379 80 1379 78 1384.5 c 128,-1,127
 76 1390 76 1390 76 1394 c 2,128,-1
 76 1398 l 2,129,130
 76 1409 76 1409 84 1417 c 128,-1,131
 92 1425 92 1425 106 1425 c 2,132,-1
 1146 1424 l 1,133,-1
 1173 1436 l 2,15,16
EndSplineSet
EndChar

StartChar: uni046B
Encoding: 1131 1131 20
Width: 1503
GlyphClass: 1
Flags: W
LayerCount: 2
Fore
SplineSet
1493 23 m 0,0,1
 1493 -20 1493 -20 1453 -20 c 2,2,-1
 1120 -20 l 2,3,4
 1102 -20 1102 -20 1090.5 -8.5 c 128,-1,5
 1079 3 1079 3 1079 22 c 0,6,7
 1079 60 1079 60 1142 82 c 0,8,9
 1179 95 1179 95 1179 146 c 2,10,-1
 1179 193 l 2,11,12
 1179 300 1179 300 1094 383 c 0,13,14
 1042 434 1042 434 969 434 c 0,15,16
 940 434 940 434 894 422 c 1,17,18
 863 379 863 379 863 282 c 2,19,-1
 863 142 l 2,20,21
 863 93 863 93 897.5 81 c 128,-1,22
 932 69 932 69 946.5 54 c 128,-1,23
 961 39 961 39 961 20.5 c 128,-1,24
 961 2 961 2 950 -9 c 128,-1,25
 939 -20 939 -20 920 -20 c 2,26,-1
 591 -20 l 2,27,28
 573 -20 573 -20 562 -9 c 128,-1,29
 551 2 551 2 551 21 c 0,30,31
 551 58 551 58 613 80 c 0,32,33
 648 93 648 93 648 142 c 2,34,-1
 648 336 l 2,35,36
 648 385 648 385 625 423 c 1,37,38
 569 434 569 434 553 434 c 0,39,40
 480 434 480 434 428 383 c 0,41,42
 343 300 343 300 343 193 c 2,43,-1
 343 146 l 2,44,45
 343 96 343 96 380 83 c 0,46,47
 443 60 443 60 443 23 c 0,48,49
 443 -20 443 -20 402 -20 c 2,50,-1
 69 -20 l 2,51,52
 51 -20 51 -20 40 -9 c 128,-1,53
 29 2 29 2 29 22 c 0,54,55
 29 60 29 60 92 83 c 0,56,57
 129 96 129 96 129 146 c 2,58,-1
 129 193 l 2,59,60
 129 411 129 411 252 504 c 0,61,62
 333 565 333 565 410.5 565 c 128,-1,63
 488 565 488 565 554 549 c 1,64,-1
 427 778 l 1,65,66
 393 829 393 829 329.5 851.5 c 128,-1,67
 266 874 266 874 251.5 888 c 128,-1,68
 237 902 237 902 237 917 c 0,69,70
 237 949 237 949 267 949 c 2,71,-1
 989 949 l 1,72,-1
 1017 961 l 2,73,74
 1028 966 1028 966 1044.5 966 c 128,-1,75
 1061 966 1061 966 1078 942 c 0,76,77
 1078 941 1078 941 1136 843 c 0,78,79
 1150 819 1150 819 1150 786.5 c 128,-1,80
 1150 754 1150 754 1106.5 708.5 c 128,-1,81
 1063 663 1063 663 1003 578 c 2,82,-1
 986 553 l 1,83,84
 1073 565 1073 565 1086.5 565 c 128,-1,85
 1100 565 1100 565 1100 565 c 2,86,87
 1188 565 1188 565 1270 504 c 0,88,89
 1393 411 1393 411 1393 193 c 2,90,-1
 1393 146 l 2,91,92
 1393 95 1393 95 1430 82 c 0,93,94
 1493 60 1493 60 1493 23 c 0,0,1
921 743 m 2,95,96
 921 768 921 768 901 808 c 2,97,-1
 892 827 l 1,98,-1
 621 827 l 1,99,100
 624 816 624 816 628.5 810 c 128,-1,101
 633 804 633 804 800 526 c 1,102,-1
 891 669 l 2,103,104
 915 707 915 707 921 734 c 1,105,-1
 921 743 l 2,95,96
EndSplineSet
EndChar

StartChar: uni1D01
Encoding: 7425 7425 21
Width: 1438
GlyphClass: 1
Flags: W
LayerCount: 2
Fore
SplineSet
680 -20 m 2,0,1
 634 -20 634 -20 634 21 c 0,2,3
 634 59 634 59 684 76.5 c 128,-1,4
 734 94 734 94 734 146 c 2,5,-1
 734 308 l 1,6,-1
 411 308 l 1,7,8
 381 261 381 261 343.5 203.5 c 128,-1,9
 306 146 306 146 270 89 c 0,10,11
 263 78 263 78 259 68 c 0,12,13
 256 61 256 61 256 57 c 2,14,-1
 257 56 l 1,15,16
 257 47 257 47 259.5 42 c 128,-1,17
 262 37 262 37 264 27 c 0,18,19
 264 17 264 17 263 15 c 0,20,21
 263 14 263 14 259 6 c 0,22,23
 242 -20 242 -20 218 -20 c 2,24,-1
 45 -20 l 2,25,26
 17 -20 17 -20 11 2 c 1,27,-1
 11 7 l 2,28,29
 11 13 11 13 16 22 c 0,30,31
 23 36 23 36 53 49 c 0,32,33
 64 54 64 54 77 59 c 128,-1,34
 90 64 90 64 102 72 c 0,35,36
 126 86 126 86 140 107 c 2,37,-1
 657 874 l 1,38,39
 634 888 634 888 634 911 c 0,40,41
 634 951 634 951 680 951 c 2,42,-1
 1368 951 l 1,43,-1
 1368 738 l 2,44,45
 1368 702 1368 702 1330 697 c 1,46,-1
 1326 697 l 2,47,48
 1299 697 1299 697 1265 743 c 0,49,50
 1232 790 1232 790 1220 809 c 128,-1,51
 1208 828 1208 828 1184 828 c 2,52,-1
 958 828 l 1,53,-1
 958 529 l 1,54,-1
 1052 529 l 2,55,56
 1067 529 1067 529 1080 545 c 2,57,-1
 1125 598 l 1,58,59
 1177 598 1177 598 1177 564 c 2,60,-1
 1177 374 l 2,61,62
 1177 340 1177 340 1138 340 c 0,63,64
 1108 340 1108 340 1098.5 362.5 c 128,-1,65
 1089 385 1089 385 1077 397 c 0,66,67
 1065 408 1065 408 1052 408 c 2,68,-1
 958 408 l 1,69,-1
 958 98 l 1,70,-1
 1185 98 l 2,71,72
 1233 98 1233 98 1262 133 c 128,-1,73
 1291 168 1291 168 1313 195 c 0,74,75
 1318 201 1318 201 1327 212 c 0,76,77
 1342 232 1342 232 1365 232 c 2,78,-1
 1368 232 l 1,79,80
 1413 228 1413 228 1413 187 c 0,81,82
 1413 178 1413 178 1411 167 c 2,83,-1
 1357 -20 l 1,84,-1
 680 -20 l 2,0,1
483 416 m 1,85,-1
 734 416 l 1,86,-1
 734 785 l 1,87,-1
 483 416 l 1,85,-1
EndSplineSet
EndChar

StartChar: uni1D05
Encoding: 7429 7429 22
Width: 1117
GlyphClass: 1
Flags: W
LayerCount: 2
Fore
SplineSet
266 -24 m 2,0,-1
 185 -24 l 2,1,2
 161 -24 161 -24 118 -29 c 1,3,4
 77 -29 77 -29 77 4 c 0,5,6
 77 36 77 36 110.5 48 c 128,-1,7
 144 60 144 60 144 90 c 2,8,-1
 144 845 l 2,9,10
 144 875 144 875 110.5 886.5 c 128,-1,11
 77 898 77 898 77 931 c 0,12,13
 77 963 77 963 116 963 c 2,14,-1
 162 963 l 2,15,16
 196 963 196 963 241.5 964 c 128,-1,17
 287 965 287 965 344 966 c 2,18,-1
 400 966 l 2,19,20
 500 966 500 966 631 960 c 128,-1,21
 762 954 762 954 863.5 909.5 c 128,-1,22
 965 865 965 865 1030 776 c 0,23,24
 1098 680 1098 680 1105 530 c 0,25,26
 1106 508 1106 508 1106 487 c 0,27,28
 1106 372 1106 372 1058.5 270 c 128,-1,29
 1011 168 1011 168 925.5 101.5 c 128,-1,30
 840 35 840 35 720 4.5 c 128,-1,31
 600 -26 600 -26 492 -28 c 0,32,33
 379 -26 379 -26 266 -24 c 2,0,-1
477 90 m 0,34,35
 594 90 594 90 683 137.5 c 128,-1,36
 772 185 772 185 821.5 268 c 128,-1,37
 871 351 871 351 871 492 c 2,38,-1
 871 514 l 2,39,40
 868 618 868 618 834.5 677 c 128,-1,41
 801 736 801 736 733 787 c 128,-1,42
 665 838 665 838 570 848 c 0,43,44
 536 852 536 852 482 852 c 0,45,46
 427 852 427 852 365 842 c 1,47,-1
 365 100 l 1,48,49
 415 90 415 90 477 90 c 0,34,35
EndSplineSet
EndChar

StartChar: uni1E6B
Encoding: 7787 7787 23
Width: 646
GlyphClass: 1
Flags: W
LayerCount: 2
Fore
SplineSet
339 1631 m 0,0,1
 443 1631 443 1631 443 1430 c 0,2,3
 443 1109 443 1109 339 1109 c 0,4,5
 234 1109 234 1109 234 1430 c 0,6,7
 234 1631 234 1631 339 1631 c 0,0,1
419 827 m 1,8,-1
 418 220 l 2,9,10
 418 140 418 140 482 108.5 c 128,-1,11
 546 77 546 77 608 70 c 1,12,-1
 608 -20 l 1,13,-1
 444 -20 l 2,14,15
 403 -18 403 -18 356 -12 c 128,-1,16
 309 -6 309 -6 262 33 c 0,17,18
 204 82 204 82 202 219 c 0,19,20
 201 283 201 283 201 339 c 0,21,22
 201 377 201 377 202 444 c 2,23,-1
 208 824 l 1,24,25
 194 823 194 823 119 820 c 2,26,-1
 113 820 l 2,27,28
 70 820 70 820 68 860 c 2,29,-1
 68 862 l 2,30,31
 68 889 68 889 100 904 c 0,32,33
 119 913 119 913 181 947 c 0,34,35
 206 960 206 960 225 965 c 1,36,-1
 651 973 l 1,37,-1
 652 973 l 2,38,39
 692 973 692 973 692 927 c 0,40,41
 692 912 692 912 688 890 c 0,42,43
 674 826 674 826 618 826 c 2,44,-1
 419 827 l 1,8,-1
EndSplineSet
EndChar

StartChar: uni204A
Encoding: 8266 8266 24
Width: 963
GlyphClass: 1
Flags: W
LayerCount: 2
Fore
SplineSet
658 753 m 1,0,-1
 1058 1040 l 1,1,2
 1056 912 1056 912 1056 816 c 0,3,4
 1056 648 1056 648 1060 431 c 0,5,6
 1061 368 1061 368 1061 309 c 0,7,8
 1061 50 1061 50 1041 -141 c 0,9,10
 1032 -226 1032 -226 1002.5 -312 c 128,-1,11
 973 -398 973 -398 916 -467 c 0,12,13
 803 -603 803 -603 664 -605 c 2,14,-1
 661 -605 l 2,15,16
 598 -605 598 -605 596 -549 c 2,17,-1
 596 -542 l 2,18,19
 596 -527 596 -527 601 -516 c 0,20,21
 611 -497 611 -497 653 -497 c 0,22,23
 664 -497 664 -497 676 -498 c 0,24,25
 691 -498 691 -498 730 -471 c 0,26,27
 770 -442 770 -442 796 -363 c 0,28,29
 816 -296 816 -296 820 -150 c 0,30,31
 825 26 825 26 825 206 c 0,32,33
 825 266 825 266 824 327 c 0,34,35
 822 570 822 570 820 754 c 1,36,-1
 629 615 l 2,37,38
 612 601 612 601 570 590 c 0,39,40
 555 586 555 586 540 586 c 0,41,42
 511 586 511 586 487 601 c 0,43,44
 432 631 432 631 432 721 c 2,45,-1
 432 739 l 2,46,47
 433 753 433 753 433 764 c 0,48,49
 433 837 433 837 417 840 c 2,50,-1
 411 840 l 2,51,52
 393 840 393 840 347 828 c 0,53,54
 289 813 289 813 51 708 c 1,55,-1
 539 1050 l 1,56,57
 658 939 658 939 658 753 c 1,0,-1
EndSplineSet
EndChar

StartChar: uni204B
Encoding: 8267 8267 25
Width: 1190
GlyphClass: 1
Flags: W
LayerCount: 2
Fore
SplineSet
525 737 m 1,0,-1
 628 737 l 2,1,2
 692 737 692 737 757 755 c 0,3,4
 824 774 824 774 870 820 c 0,5,6
 940 890 940 890 940 1000 c 2,7,-1
 940 1003 l 2,8,9
 940 1115 940 1115 866 1187 c 0,10,11
 784 1265 784 1265 647 1265 c 2,12,-1
 525 1265 l 1,13,-1
 525 737 l 1,0,-1
525 629 m 1,14,-1
 525 -553 l 2,15,16
 525 -561 525 -561 519 -567 c 128,-1,17
 513 -573 513 -573 505 -573 c 2,18,-1
 415 -573 l 2,19,20
 407 -573 407 -573 401 -567 c 128,-1,21
 395 -561 395 -561 395 -553 c 2,22,-1
 395 1268 l 1,23,-1
 319 1268 l 1,24,-1
 319 -553 l 2,25,26
 319 -561 319 -561 313 -567 c 128,-1,27
 307 -573 307 -573 299 -573 c 2,28,-1
 225 -573 l 2,29,30
 217 -573 217 -573 211 -567 c 128,-1,31
 205 -561 205 -561 205 -553 c 2,32,-1
 207 1222 l 2,33,34
 207 1256 207 1256 191 1272 c 0,35,36
 183 1280 183 1280 172 1284 c 0,37,38
 110 1306 110 1306 110 1344 c 0,39,40
 110 1363 110 1363 121 1374 c 128,-1,41
 132 1385 132 1385 150 1385 c 2,42,-1
 724 1385 l 2,43,44
 827 1385 827 1385 940 1349 c 0,45,46
 1058 1310 1058 1310 1119 1202 c 0,47,48
 1169 1113 1169 1113 1169 994 c 2,49,50
 1169 994 1169 994 1169 993 c 0,51,52
 1166 876 1166 876 1101 785 c 0,53,54
 1044 705 1044 705 944 667 c 128,-1,55
 844 629 844 629 759 629 c 2,56,-1
 525 629 l 1,14,-1
EndSplineSet
EndChar

StartChar: uni2125
Encoding: 8485 8485 26
Width: 1016
GlyphClass: 1
Flags: W
LayerCount: 2
Fore
SplineSet
834 1389 m 2,0,1
 941 1389 941 1389 941 1338 c 0,2,3
 941 1318 941 1318 922 1295 c 2,4,-1
 568 760 l 1,5,-1
 914 760 l 2,6,7
 922 760 922 760 928 754 c 128,-1,8
 934 748 934 748 934 740 c 2,9,-1
 934 436 l 2,10,11
 931 252 931 252 761 162 c 1,12,13
 858 143 858 143 922.5 65.5 c 128,-1,14
 987 -12 987 -12 987 -160 c 2,15,-1
 987 -164 l 2,16,17
 985 -351 985 -351 831 -481 c 0,18,19
 701 -591 701 -591 531 -591 c 2,20,-1
 528 -591 l 2,21,22
 411 -590 411 -590 346 -572 c 128,-1,23
 281 -554 281 -554 214 -525 c 0,24,25
 164 -502 164 -502 161 -460 c 0,26,27
 160 -441 160 -441 160 -418 c 0,28,29
 160 -338 160 -338 198 -317 c 0,30,31
 217 -309 217 -309 219 -309 c 2,32,33
 219 -309 219 -309 227.5 -309 c 128,-1,34
 236 -309 236 -309 258 -335 c 128,-1,35
 280 -361 280 -361 336.5 -409.5 c 128,-1,36
 393 -458 393 -458 490 -458 c 2,37,-1
 502 -458 l 2,38,39
 546 -456 546 -456 591 -438 c 0,40,41
 704 -392 704 -392 753 -274 c 0,42,43
 775 -220 775 -220 775 -174 c 0,44,45
 775 -18 775 -18 642 52 c 0,46,47
 588 81 588 81 519 81 c 2,48,-1
 513 81 l 2,49,50
 437 79 437 79 403.5 73 c 128,-1,51
 370 67 370 67 365 67 c 128,-1,52
 360 67 360 67 354 73 c 128,-1,53
 348 79 348 79 348 84 c 2,54,55
 348 84 348 84 348 91 c 2,56,-1
 365 168 l 2,57,58
 368 183 368 183 384 184 c 0,59,60
 512 190 512 190 602 255 c 0,61,62
 652 291 652 291 682 333 c 0,63,64
 710 374 710 374 710 445 c 0,65,66
 710 447 710 447 710 450 c 0,67,68
 709 525 709 525 669 573 c 1,69,-1
 668 573 l 1,70,71
 631 619 631 619 548 621 c 2,72,-1
 401 621 l 2,73,74
 305 622 305 622 291.5 634.5 c 128,-1,75
 278 647 278 647 278 662.5 c 128,-1,76
 278 678 278 678 294 703 c 2,77,-1
 643 1269 l 1,78,-1
 337 1268 l 2,79,80
 294 1268 294 1268 267.5 1240.5 c 128,-1,81
 241 1213 241 1213 213 1175 c 0,82,83
 178 1128 178 1128 168.5 1122 c 128,-1,84
 159 1116 159 1116 148 1116 c 128,-1,85
 137 1116 137 1116 126 1125 c 128,-1,86
 115 1134 115 1134 115 1153 c 2,87,-1
 115 1306 l 2,88,89
 115 1360 115 1360 137.5 1374.5 c 128,-1,90
 160 1389 160 1389 229 1389 c 2,91,-1
 834 1389 l 2,0,1
EndSplineSet
EndChar

StartChar: musicalnotedbl
Encoding: 9835 9835 27
Width: 1234
GlyphClass: 1
Flags: W
LayerCount: 2
Fore
SplineSet
1172 1538 m 1,0,-1
 1172 424 l 2,1,2
 1172 248 1172 248 1116 156 c 128,-1,3
 1060 64 1060 64 959 28 c 0,4,5
 906 9 906 9 852 8 c 0,6,7
 808 8 808 8 767 22 c 0,8,9
 639 64 639 64 639 200 c 0,10,11
 639 240 639 240 683.5 307.5 c 128,-1,12
 728 375 728 375 808 402 c 128,-1,13
 888 429 888 429 942 429 c 128,-1,14
 996 429 996 429 1045 406 c 1,15,-1
 1045 1220 l 1,16,-1
 542 990 l 1,17,-1
 542 94 l 2,18,19
 542 -81 542 -81 486 -173.5 c 128,-1,20
 430 -266 430 -266 331 -302 c 0,21,22
 278 -320 278 -320 229 -320 c 128,-1,23
 180 -320 180 -320 139 -306 c 0,24,25
 9 -266 9 -266 9 -128 c 0,26,27
 9 -88 9 -88 45 -33 c 0,28,29
 98 44 98 44 178 71.5 c 128,-1,30
 258 99 258 99 312 99 c 128,-1,31
 366 99 366 99 415 76 c 1,32,-1
 415 1193 l 1,33,-1
 1172 1538 l 1,0,-1
EndSplineSet
EndChar

StartChar: uni2766
Encoding: 10086 10086 28
Width: 2009
GlyphClass: 1
Flags: W
LayerCount: 2
Fore
SplineSet
1193 -346 m 1,0,1
 1184 -317 1184 -317 1146.5 -230 c 128,-1,2
 1109 -143 1109 -143 1031 -86 c 0,3,4
 942 -20 942 -20 844 32 c 128,-1,5
 746 84 746 84 664 152 c 128,-1,6
 582 220 582 220 528.5 318.5 c 128,-1,7
 475 417 475 417 475 575 c 0,8,9
 475 735 475 735 582.5 862 c 128,-1,10
 690 989 690 989 859 989 c 0,11,12
 992 989 992 989 1075 935.5 c 128,-1,13
 1158 882 1158 882 1191 811 c 1,14,15
 1209 846 1209 846 1232 873 c 1,16,17
 1233 888 1233 888 1233 903 c 0,18,19
 1233 991 1233 991 1204 1096 c 0,20,21
 1169 1219 1169 1219 1072 1300 c 0,22,23
 942 1407 942 1407 806 1407 c 0,24,25
 748 1407 748 1407 689 1387 c 0,26,27
 490 1319 490 1319 383 1183 c 0,28,29
 244 1005 244 1005 244 808 c 0,30,31
 244 750 244 750 256 691 c 0,32,33
 309 429 309 429 386 171 c 0,34,35
 419 60 419 60 419 -34 c 0,36,37
 419 -71 419 -71 414 -106 c 0,38,39
 397 -225 397 -225 357 -274 c 2,40,41
 357 -274 357 -274 181 -491 c 1,42,-1
 173 -491 l 1,43,44
 173 -491 173 -491 233 -345 c 0,45,46
 269 -256 269 -256 269 -156 c 0,47,48
 269 -89 269 -89 252 -19 c 0,49,50
 216 132 216 132 147 298 c 0,51,52
 83 454 83 454 53 613 c 0,53,54
 39 689 39 689 39 767 c 0,55,56
 39 852 39 852 56 939 c 0,57,58
 88 1106 88 1106 241 1291 c 0,59,60
 398 1480 398 1480 645 1522 c 0,61,62
 698 1531 698 1531 749 1531 c 0,63,64
 936 1531 936 1531 1092 1404 c 0,65,66
 1225 1293 1225 1293 1277 1172 c 0,67,68
 1320 1068 1320 1068 1320 974 c 0,69,70
 1320 958 1320 958 1319 942 c 1,71,72
 1406 989 1406 989 1524 989 c 0,73,74
 1692 989 1692 989 1800 862 c 128,-1,75
 1908 735 1908 735 1908 575 c 0,76,77
 1908 417 1908 417 1854 318.5 c 128,-1,78
 1800 220 1800 220 1718 152 c 128,-1,79
 1636 84 1636 84 1538 32 c 128,-1,80
 1440 -20 1440 -20 1352 -86 c 0,81,82
 1273 -143 1273 -143 1237 -230 c 128,-1,83
 1201 -317 1201 -317 1193 -346 c 1,0,1
1191 -171 m 1,84,85
 1191 -131 1191 -131 1232.5 -61.5 c 128,-1,86
 1274 8 1274 8 1364 68 c 0,87,88
 1511 166 1511 166 1649 276 c 128,-1,89
 1787 386 1787 386 1793 579 c 1,90,-1
 1793 588 l 2,91,92
 1793 699 1793 699 1722 810 c 0,93,94
 1648 925 1648 925 1490 928 c 2,95,-1
 1482 928 l 2,96,97
 1338 928 1338 928 1277 819 c 0,98,99
 1214 706 1214 706 1199 619 c 1,100,-1
 1191 618 l 1,101,-1
 1191 704 l 1,102,103
 1177 761 1177 761 1092.5 844.5 c 128,-1,104
 1008 928 1008 928 892 928 c 0,105,106
 734 928 734 928 662 812 c 0,107,108
 592 700 592 700 592 588 c 2,109,-1
 592 579 l 1,110,111
 597 386 597 386 734 276 c 0,112,113
 857 177 857 177 1019 68 c 0,114,115
 1108 8 1108 8 1149.5 -61.5 c 128,-1,116
 1191 -131 1191 -131 1191 -171 c 1,84,85
EndSplineSet
EndChar

StartChar: uniA738
Encoding: 42808 42808 29
Width: 1900
GlyphClass: 1
Flags: W
LayerCount: 2
Fore
SplineSet
1364 227 m 1,0,-1
 1799 1114 l 2,1,2
 1809 1136 1809 1136 1809 1154 c 0,3,4
 1809 1168 1809 1168 1804 1177 c 0,5,6
 1785 1206 1785 1206 1745 1253 c 2,7,-1
 1684 1324 l 1,8,-1
 1823 1429 l 2,9,10
 1838 1442 1838 1442 1858 1442 c 0,11,12
 1879 1442 1879 1442 1900 1425 c 2,13,-1
 1980 1342 l 2,14,15
 2014 1307 2014 1307 2014 1262 c 0,16,17
 2014 1238 2014 1238 2005 1210 c 0,18,19
 1981 1138 1981 1138 1933 1041 c 2,20,-1
 1444 26 l 2,21,22
 1435 5 1435 5 1423 -8 c 0,23,24
 1411 -20 1411 -20 1389 -20 c 2,25,-1
 1266 -20 l 2,26,27
 1242 -20 1242 -20 1229 -3 c 0,28,29
 1224 2 1224 2 1216.5 24 c 128,-1,30
 1209 46 1209 46 1205 56 c 2,31,-1
 1027 469 l 1,32,-1
 479 469 l 1,33,34
 449 397 449 397 413.5 311.5 c 128,-1,35
 378 226 378 226 343 141 c 0,36,37
 335 123 335 123 334 109 c 0,38,39
 333 103 333 103 333 97 c 0,40,41
 333 89 333 89 335 82 c 0,42,43
 338 72 338 72 344.5 64 c 128,-1,44
 351 56 351 56 356 42 c 0,45,46
 357 32 357 32 357 28 c 0,47,48
 357 21 357 21 353 14 c 0,49,50
 339 -20 339 -20 308 -20 c 2,51,-1
 50 -20 l 2,52,53
 22 -20 22 -20 14 -4 c 0,54,55
 9 1 9 1 9 11 c 256,56,57
 9 21 9 21 13 28 c 0,58,59
 22 48 22 48 57 64 c 0,60,61
 71 71 71 71 88.5 79 c 128,-1,62
 106 87 106 87 122 98 c 0,63,64
 154 120 154 120 167 152 c 2,65,-1
 741 1447 l 1,66,-1
 838 1447 l 1,67,68
 893 1317 893 1317 965 1151.5 c 128,-1,69
 1037 986 1037 986 1113.5 809 c 128,-1,70
 1190 632 1190 632 1262.5 463.5 c 128,-1,71
 1335 295 1335 295 1364 227 c 1,0,-1
975 590 m 1,72,-1
 749 1117 l 1,73,74
 709 1020 709 1020 645.5 868 c 128,-1,75
 582 716 582 716 530 590 c 1,76,-1
 975 590 l 1,72,-1
EndSplineSet
EndChar

StartChar: uniA762
Encoding: 42850 42850 30
Width: 1069
GlyphClass: 1
Flags: W
LayerCount: 2
Fore
SplineSet
209 131 m 1,0,-1
 533 630 l 1,1,2
 490 636 490 636 413.5 650.5 c 128,-1,3
 337 665 337 665 265 700 c 0,4,5
 169 745 169 745 122.5 831.5 c 128,-1,6
 76 918 76 918 76 1018 c 0,7,8
 76 1213 76 1213 213 1338 c 0,9,10
 355 1469 355 1469 570 1469 c 2,11,-1
 601 1469 l 1,12,13
 832 1459 832 1459 1005 1347 c 1,14,-1
 980 1126 l 2,15,16
 976 1090 976 1090 936 1090 c 2,17,-1
 931 1090 l 2,18,19
 901 1092 901 1092 883 1131 c 0,20,21
 843 1217 843 1217 766.5 1276 c 128,-1,22
 690 1335 690 1335 604 1339 c 1,23,-1
 589 1339 l 2,24,25
 503 1339 503 1339 438 1309 c 0,26,27
 395 1287 395 1287 370 1261 c 0,28,29
 346 1235 346 1235 327 1197 c 0,30,31
 312 1166 312 1166 304 1124 c 0,32,33
 297 1093 297 1093 297 1066 c 0,34,35
 297 1030 297 1030 308 999 c 0,36,37
 327 938 327 938 373 906 c 0,38,39
 407 880 407 880 448 870 c 0,40,41
 473 863 473 863 508 857 c 128,-1,42
 543 851 543 851 582 845 c 0,43,44
 639 836 639 836 703.5 826 c 128,-1,45
 768 816 768 816 830 798 c 0,46,47
 867 784 867 784 913 767 c 1,48,-1
 582 258 l 1,49,50
 632 249 632 249 716.5 235 c 128,-1,51
 801 221 801 221 881 183 c 0,52,53
 975 137 975 137 1022 51 c 128,-1,54
 1069 -35 1069 -35 1069 -135 c 0,55,56
 1069 -329 1069 -329 933 -455 c 0,57,58
 790 -586 790 -586 575 -586 c 0,59,60
 559 -586 559 -586 544 -585 c 0,61,62
 313 -576 313 -576 140 -464 c 1,63,-1
 166 -244 l 2,64,65
 168 -206 168 -206 208 -206 c 0,66,67
 216 -206 216 -206 220 -207 c 0,68,69
 245 -209 245 -209 263 -248 c 0,70,71
 302 -334 302 -334 379 -393 c 128,-1,72
 456 -452 456 -452 541 -456 c 1,73,-1
 555 -456 l 2,74,75
 640 -456 640 -456 709 -425 c 0,76,77
 747 -406 747 -406 776 -377 c 0,78,79
 799 -351 799 -351 819 -313 c 0,80,81
 835 -275 835 -275 842 -241 c 0,82,83
 847 -212 847 -212 847 -184 c 0,84,85
 847 -147 847 -147 838 -116 c 0,86,87
 818 -55 818 -55 774 -23 c 0,88,89
 736 3 736 3 698 12 c 0,90,91
 672 18 672 18 637 24 c 128,-1,92
 602 30 602 30 563 37 c 0,93,94
 506 46 506 46 441.5 56 c 128,-1,95
 377 66 377 66 317 85 c 0,96,97
 274 97 274 97 209 131 c 1,0,-1
EndSplineSet
EndChar

StartChar: uniEA58
Encoding: 59992 59992 31
Width: 1191
GlyphClass: 1
Flags: W
LayerCount: 2
Fore
SplineSet
899 -607 m 2,0,1
 862 -607 862 -607 862 -574 c 2,2,-1
 862 506 l 2,3,4
 862 717 862 717 777 800 c 0,5,6
 725 851 725 851 649.5 851 c 128,-1,7
 574 851 574 851 387 771 c 0,8,9
 383 769 383 769 374.5 769 c 128,-1,10
 366 769 366 769 361 781 c 2,11,-1
 339 831 l 2,12,13
 337 836 337 836 337 844 c 128,-1,14
 337 852 337 852 350 858 c 0,15,16
 405 879 405 879 462.5 902 c 128,-1,17
 520 925 520 925 585 947 c 1,18,19
 732 982 732 982 754 982 c 2,20,21
 754 982 754 982 777 982 c 0,22,23
 872 982 872 982 953 921 c 0,24,25
 1076 828 1076 828 1076 506 c 2,26,-1
 1076 -441 l 2,27,28
 1076 -492 1076 -492 1113 -505 c 0,29,30
 1176 -527 1176 -527 1176 -564 c 0,31,32
 1176 -607 1176 -607 1136 -607 c 2,33,-1
 899 -607 l 2,0,1
EndSplineSet
EndChar

StartChar: uniEA61
Encoding: 60001 60001 32
Width: 1155
GlyphClass: 1
Flags: W
LayerCount: 2
Fore
SplineSet
276 373 m 0,0,1
 295 277 295 277 346 208 c 0,2,3
 429 95 429 95 556 95 c 0,4,5
 606 95 606 95 668 118 c 2,6,-1
 785 160 l 1,7,-1
 785 760 l 1,8,9
 752 787 752 787 687 819 c 0,10,11
 637 843 637 843 607 849 c 0,12,13
 595 852 595 852 582 852 c 0,14,15
 556 852 556 852 524 842 c 0,16,17
 444 817 444 817 423 806 c 0,18,19
 369 786 369 786 339 753 c 0,20,21
 300 711 300 711 273 599 c 0,22,23
 263 553 263 553 263 494 c 0,24,25
 263 434 263 434 276 373 c 0,0,1
998 868 m 1,26,-1
 998 134 l 1,27,-1
 529 -33 l 2,28,29
 495 -45 495 -45 469 -45 c 2,30,-1
 428 -45 l 2,31,32
 277 -45 277 -45 167 79 c 0,33,34
 42 220 42 220 42 434 c 0,35,36
 42 496 42 496 48 541 c 0,37,38
 62 633 62 633 110 710 c 0,39,40
 146 768 146 768 205 812 c 0,41,42
 236 835 236 835 265 849 c 0,43,44
 493 934 493 934 596 968 c 0,45,46
 617 975 617 975 647 975 c 128,-1,47
 677 975 677 975 721 964 c 0,48,49
 766 954 766 954 998 868 c 1,26,-1
EndSplineSet
EndChar

StartChar: uniEA68
Encoding: 60008 60008 33
Width: 1191
GlyphClass: 1
Flags: W
LayerCount: 2
Fore
SplineSet
1076 506 m 2,0,-1
 1076 12 l 2,1,2
 1076 -188 1076 -188 1049 -287.5 c 128,-1,3
 1022 -387 1022 -387 940 -472 c 128,-1,4
 858 -557 858 -557 741 -586 c 2,5,-1
 716 -593 l 1,6,-1
 716 -506 l 1,7,-1
 726 -500 l 2,8,9
 821 -442 821 -442 849 -351 c 0,10,11
 861 -313 861 -313 862 -242 c 0,12,13
 862 -117 862 -117 862 169 c 2,14,-1
 862 506 l 2,15,16
 862 717 862 717 777 800 c 0,17,18
 725 851 725 851 652 851 c 0,19,20
 574 851 574 851 387 771 c 2,21,-1
 369 763 l 1,22,-1
 330 850 l 1,23,24
 404 878 404 878 462 901.5 c 128,-1,25
 520 925 520 925 585 947 c 1,26,27
 733 982 733 982 774 982 c 0,28,29
 776 982 776 982 777 982 c 0,30,31
 872 982 872 982 953 921 c 0,32,33
 1076 828 1076 828 1076 506 c 2,0,-1
EndSplineSet
EndChar

StartChar: uniEA6C
Encoding: 60012 60012 34
Width: 1191
GlyphClass: 1
Flags: W
LayerCount: 2
Fore
SplineSet
1222 -506 m 1,0,-1
 1222 -593 l 1,1,-1
 1197 -586 l 2,2,3
 1079 -557 1079 -557 997.5 -472 c 128,-1,4
 916 -387 916 -387 889 -287.5 c 128,-1,5
 862 -188 862 -188 862 12 c 2,6,-1
 862 506 l 2,7,8
 862 717 862 717 777 800 c 0,9,10
 725 851 725 851 652 851 c 0,11,12
 574 851 574 851 387 771 c 2,13,-1
 369 763 l 1,14,-1
 330 850 l 1,15,16
 404 878 404 878 462 901.5 c 128,-1,17
 520 925 520 925 585 947 c 1,18,19
 733 982 733 982 774 982 c 0,20,21
 776 982 776 982 777 982 c 0,22,23
 872 982 872 982 953 921 c 0,24,25
 1076 828 1076 828 1076 506 c 2,26,-1
 1076 169 l 1,27,-1
 1076 -242 l 2,28,29
 1076 -313 1076 -313 1089 -351 c 0,30,31
 1118 -442 1118 -442 1212 -500 c 2,32,-1
 1222 -506 l 1,0,-1
EndSplineSet
EndChar

StartChar: uniEA6E
Encoding: 60014 60014 35
Width: 1191
GlyphClass: 1
Flags: W
LayerCount: 2
Fore
SplineSet
899 -20 m 2,0,1
 862 -20 862 -20 862 13 c 2,2,-1
 862 506 l 2,3,4
 862 715 862 715 778 798 c 0,5,6
 725 851 725 851 649.5 851 c 128,-1,7
 574 851 574 851 387 771 c 0,8,9
 383 769 383 769 377 769 c 0,10,11
 366 769 366 769 361 781 c 2,12,-1
 339 831 l 2,13,14
 337 836 337 836 337 841 c 0,15,16
 337 852 337 852 350 858 c 0,17,18
 405 879 405 879 462.5 902 c 128,-1,19
 520 925 520 925 603 953.5 c 128,-1,20
 686 982 686 982 779 982 c 128,-1,21
 872 982 872 982 953 921 c 0,22,23
 1076 828 1076 828 1076 506 c 2,24,-1
 1076 146 l 2,25,26
 1076 95 1076 95 1113 82 c 0,27,28
 1176 60 1176 60 1176 23 c 0,29,30
 1176 -20 1176 -20 1136 -20 c 2,31,-1
 899 -20 l 2,0,1
EndSplineSet
EndChar

StartChar: uniEA6F
Encoding: 60015 60015 36
Width: 1797
GlyphClass: 1
Flags: W
LayerCount: 2
Fore
SplineSet
776 -20 m 2,0,1
 735 -20 735 -20 735 20 c 128,-1,2
 735 60 735 60 798 82 c 0,3,4
 835 95 835 95 835 146 c 2,5,-1
 835 506 l 2,6,7
 835 717 835 717 750 800 c 0,8,9
 698 851 698 851 622.5 851 c 128,-1,10
 547 851 547 851 360 771 c 0,11,12
 356 769 356 769 350 769 c 0,13,14
 339 769 339 769 334 781 c 2,15,-1
 312 831 l 2,16,17
 310 836 310 836 310 841 c 0,18,19
 310 852 310 852 323 858 c 0,20,21
 378 879 378 879 435.5 902 c 128,-1,22
 493 925 493 925 558 947 c 1,23,24
 706 982 706 982 727.5 982 c 128,-1,25
 749 982 749 982 750 982 c 0,26,27
 845 982 845 982 926 921 c 0,28,29
 1049 828 1049 828 1049 506 c 2,30,-1
 1049 146 l 2,31,32
 1049 95 1049 95 1086 82 c 0,33,34
 1149 60 1149 60 1149 20 c 128,-1,35
 1149 -20 1149 -20 1109 -20 c 2,36,-1
 776 -20 l 2,0,1
EndSplineSet
EndChar

StartChar: uniEEDF
Encoding: 61151 61151 37
Width: 625
GlyphClass: 1
Flags: W
LayerCount: 2
Fore
SplineSet
604 1465 m 2,0,1
 632 1465 632 1465 660 1446 c 128,-1,2
 688 1427 688 1427 697 1410 c 0,3,4
 706 1392 706 1392 706 1346 c 0,5,6
 706 1313 706 1313 698 1299 c 128,-1,7
 690 1285 690 1285 677 1282 c 2,8,-1
 675 1281 l 1,9,-1
 672 1281 l 1,10,-1
 669 1281 l 2,11,12
 660 1281 660 1281 646 1287 c 0,13,14
 633 1293 633 1293 612 1307 c 0,15,16
 583 1327 583 1327 550 1327 c 0,17,18
 518 1327 518 1327 495 1318 c 0,19,20
 454 1301 454 1301 434 1266 c 0,21,22
 417 1238 417 1238 412 1194 c 0,23,24
 408 1150 408 1150 408 1027 c 2,25,-1
 408 -441 l 2,26,27
 408 -465 408 -465 416 -481 c 128,-1,28
 424 -497 424 -497 445 -504 c 0,29,30
 508 -526 508 -526 508 -566 c 0,31,32
 508 -587 508 -587 494 -598 c 0,33,34
 483 -607 483 -607 467 -607 c 2,35,-1
 128 -607 l 2,36,37
 112 -607 112 -607 101 -598 c 0,38,39
 87 -587 87 -587 87 -566 c 0,40,41
 87 -526 87 -526 150 -504 c 0,42,43
 170 -497 170 -497 179 -481 c 0,44,45
 187 -465 187 -465 187 -441 c 2,46,-1
 187 824 l 1,47,-1
 93 820 l 1,48,-1
 88 820 l 2,49,50
 68 820 68 820 57 834 c 0,51,52
 49 844 49 844 48 860 c 2,53,-1
 48 862 l 2,54,55
 48 891 48 891 79 905 c 0,56,57
 99 914 99 914 134 933 c 0,58,59
 172 954 172 954 187 960 c 1,60,61
 187 994 187 994 187 1027 c 0,62,63
 188 1160 188 1160 207 1225 c 0,64,65
 242 1342 242 1342 304 1364 c 2,66,-1
 559 1459 l 2,67,68
 570 1463 570 1463 599 1465 c 2,69,-1
 600 1465 l 1,70,-1
 604 1465 l 2,0,1
EndSplineSet
EndChar

StartChar: uniF226
Encoding: 61990 61990 38
Width: 1624
GlyphClass: 1
Flags: W
LayerCount: 2
Fore
SplineSet
1567 521 m 0,0,1
 1567 395 1567 395 1522 276 c 128,-1,2
 1477 157 1477 157 1403 55 c 0,3,4
 1272 -120 1272 -120 1095 -208 c 0,5,6
 1083 -213 1083 -213 1073 -219 c 0,7,8
 1062 -225 1062 -225 1050 -231 c 0,9,10
 1038 -235 1038 -235 1036 -235 c 2,11,-1
 1034 -235 l 2,12,13
 1027 -235 1027 -235 1019 -231 c 0,14,15
 1006 -223 1006 -223 1006 -198 c 0,16,17
 1006 -190 1006 -190 1010 -185 c 0,18,19
 1014 -179 1014 -179 1022 -172 c 128,-1,20
 1030 -165 1030 -165 1050 -150 c 0,21,22
 1131 -89 1131 -89 1190 -19 c 0,23,24
 1248 51 1248 51 1289 128 c 0,25,26
 1367 271 1367 271 1367 441 c 2,27,-1
 1367 520 l 2,28,29
 1367 586 1367 586 1347 644 c 128,-1,30
 1327 702 1327 702 1301 744 c 0,31,32
 1279 780 1279 780 1230 817 c 0,33,34
 1182 855 1182 855 1129 855 c 2,35,-1
 1121 855 l 2,36,37
 1067 855 1067 855 1024 825 c 128,-1,38
 981 795 981 795 956 764 c 0,39,40
 897 685 897 685 897 546 c 2,41,-1
 897 113 l 2,42,43
 897 96 897 96 902 86 c 0,44,45
 907 75 907 75 921 70 c 0,46,47
 972 51 972 51 972 19 c 0,48,49
 972 6 972 6 965 -4 c 0,50,51
 955 -17 955 -17 937 -17 c 2,52,-1
 679 -20 l 2,53,54
 665 -20 665 -20 655 -12 c 0,55,56
 643 -2 643 -2 643 16 c 0,57,58
 643 48 643 48 694 66 c 0,59,60
 707 71 707 71 713 82 c 0,61,62
 718 93 718 93 718 109 c 2,63,-1
 718 527 l 2,64,65
 718 609 718 609 710 658 c 128,-1,66
 702 707 702 707 668 757 c 0,67,68
 645 791 645 791 597 822 c 128,-1,69
 549 853 549 853 492 853 c 2,70,-1
 487 853 l 2,71,72
 465 853 465 853 434 840 c 128,-1,73
 403 827 403 827 389 817 c 0,74,75
 350 790 350 790 321 746 c 0,76,77
 296 709 296 709 277 646 c 128,-1,78
 258 583 258 583 258 521 c 2,79,-1
 258 458 l 2,80,81
 258 380 258 380 279 323 c 0,82,83
 298 270 298 270 327 213 c 0,84,85
 347 174 347 174 387 132 c 0,86,87
 428 91 428 91 464 63 c 0,88,89
 494 39 494 39 501 31 c 0,90,91
 508 24 508 24 508 16 c 0,92,93
 508 2 508 2 501 -7 c 0,94,95
 491 -20 491 -20 473 -20 c 2,96,-1
 199 -20 l 2,97,98
 181 -20 181 -20 171 -7 c 0,99,100
 164 2 164 2 164 16 c 0,101,102
 164 35 164 35 178 47 c 0,103,104
 196 63 196 63 235 63 c 0,105,106
 253 63 253 63 261 68 c 0,107,108
 267 71 267 71 267 80 c 0,109,110
 267 82 267 82 263 89 c 128,-1,111
 259 96 259 96 245 110 c 0,112,113
 217 137 217 137 207 149 c 0,114,115
 178 178 178 178 140 234 c 0,116,117
 114 273 114 273 88 335 c 0,118,119
 62 398 62 398 62 463 c 2,120,-1
 62 517 l 2,121,122
 62 612 62 612 104 695 c 0,123,124
 146 779 146 779 195 828 c 128,-1,125
 244 877 244 877 324 916 c 0,126,127
 404 956 404 956 506 956 c 2,128,-1
 532 956 l 2,129,130
 587 956 587 956 636 938 c 0,131,132
 690 918 690 918 721 900 c 0,133,134
 761 874 761 874 789 846 c 0,135,136
 799 836 799 836 813 819 c 128,-1,137
 827 802 827 802 833 794 c 1,138,139
 839 801 839 801 854 820 c 0,140,141
 871 840 871 840 877 847 c 0,142,143
 919 886 919 886 949 905 c 0,144,145
 1029 956 1029 956 1163 956 c 2,146,-1
 1167 956 l 2,147,148
 1261 956 1261 956 1333 915 c 0,149,150
 1407 872 1407 872 1453 826 c 0,151,152
 1499 779 1499 779 1533 696 c 128,-1,153
 1567 613 1567 613 1567 521 c 0,0,1
EndSplineSet
EndChar

StartChar: uniF159
Encoding: 61785 61785 39
Width: 1105
Flags: W
LayerCount: 2
Fore
SplineSet
408 1095 m 1,0,1
 316 1057 316 1057 306 1057 c 128,-1,2
 296 1057 296 1057 290 1066 c 0,3,4
 250 1124 250 1124 250 1135 c 128,-1,5
 250 1146 250 1146 272.5 1155.5 c 128,-1,6
 295 1165 295 1165 327 1179 c 1,7,8
 250 1274 250 1274 250 1363 c 128,-1,9
 250 1452 250 1452 340 1542 c 0,10,11
 346 1548 346 1548 352 1548 c 128,-1,12
 358 1548 358 1548 365 1545 c 1,13,-1
 416 1512 l 1,14,15
 416 1512 416 1512 421 1507 c 128,-1,16
 426 1502 426 1502 426 1496 c 128,-1,17
 426 1490 426 1490 418 1479 c 128,-1,18
 410 1468 410 1468 410 1446 c 128,-1,19
 410 1424 410 1424 438 1377 c 128,-1,20
 466 1330 466 1330 491.5 1305 c 128,-1,21
 517 1280 517 1280 521 1276 c 1,22,23
 562 1296 562 1296 852 1514 c 0,24,25
 868 1526 868 1526 880 1513 c 2,26,27
 880 1513 880 1513 898 1493.5 c 128,-1,28
 916 1474 916 1474 924 1465 c 128,-1,29
 932 1456 932 1456 932 1448 c 128,-1,30
 932 1440 932 1440 926 1434 c 0,31,32
 830 1341 830 1341 612 1195 c 1,33,34
 612 1195 612 1195 622 1187 c 0,35,36
 816 1028 816 1028 911 907 c 0,37,38
 1068 706 1068 706 1071 461 c 1,39,-1
 1071 455 l 2,40,41
 1071 242 1071 242 943 88 c 128,-1,42
 815 -66 815 -66 601 -72 c 1,43,44
 601 -72 601 -72 587 -72 c 0,45,46
 384 -72 384 -72 216 87 c 128,-1,47
 48 246 48 246 48 458 c 2,48,-1
 48 461 l 1,49,50
 49 694 49 694 203 836 c 0,51,52
 330 953 330 953 536 977 c 1,53,54
 473 1033 473 1033 408 1095 c 1,0,1
281 473 m 128,-1,56
 281 303 281 303 366 176.5 c 128,-1,57
 451 50 451 50 565.5 50 c 128,-1,58
 680 50 680 50 761 161.5 c 128,-1,59
 842 273 842 273 842 429.5 c 128,-1,60
 842 586 842 586 775 730 c 128,-1,61
 708 874 708 874 574 874 c 128,-1,62
 440 874 440 874 360.5 758.5 c 128,-1,55
 281 643 281 643 281 473 c 128,-1,56
EndSplineSet
EndChar

StartChar: uniEF15
Encoding: 61205 61205 40
Width: 919
Flags: W
LayerCount: 2
Fore
SplineSet
398 951 m 2,0,1
 438 951 438 951 438 910 c 0,2,3
 438 870 438 870 375 848 c 0,4,5
 338 836 338 836 338 785 c 2,6,-1
 338 759 l 1,7,-1
 585 759 l 2,8,9
 658 758 658 758 738 724 c 0,10,11
 892 657 892 657 896 470 c 1,12,13
 896 470 896 470 896 469 c 0,14,15
 892 312 892 312 739 231 c 0,16,17
 669 193 669 193 609 193 c 2,18,-1
 338 193 l 1,19,-1
 338 146 l 2,20,21
 338 96 338 96 375 82 c 0,22,23
 438 60 438 60 438 20 c 128,-1,24
 438 -20 438 -20 398 -20 c 2,25,-1
 65 -20 l 2,26,27
 24 -20 24 -20 24 20 c 128,-1,28
 24 60 24 60 87 82 c 0,29,30
 124 94 124 94 124 146 c 2,31,-1
 124 785 l 2,32,33
 124 837 124 837 87 848 c 0,34,35
 24 871 24 871 24 911 c 128,-1,36
 24 951 24 951 65 951 c 2,37,-1
 398 951 l 2,0,1
338 649 m 1,38,-1
 338 300 l 1,39,-1
 477 300 l 2,40,41
 581 300 581 300 633 350.5 c 128,-1,42
 685 401 685 401 685 476 c 128,-1,43
 685 551 685 551 633.5 600 c 128,-1,44
 582 649 582 649 490 649 c 2,45,-1
 338 649 l 1,38,-1
EndSplineSet
EndChar

StartChar: uniEA43
Encoding: 59971 59971 41
Width: 625
Flags: W
LayerCount: 2
Fore
SplineSet
450 -489 m 1,0,1
 523 -514 523 -514 523 -566 c 0,2,3
 523 -596 523 -596 506 -609 c 128,-1,4
 489 -622 489 -622 467 -622 c 2,5,-1
 128 -622 l 2,6,7
 103 -622 103 -622 87 -607 c 0,8,9
 72 -592 72 -592 72 -566 c 0,10,11
 72 -513 72 -513 145 -489 c 0,12,13
 172 -480 172 -480 172 -441 c 2,14,-1
 172 805 l 1,15,16
 172 805 172 805 88 805 c 0,17,18
 36 805 36 805 33 862 c 0,19,20
 33 863 33 863 33 864 c 0,21,22
 33 899 33 899 76 920 c 2,23,24
 76 920 76 920 172 970 c 1,25,26
 172 970 172 970 172.5 1066 c 128,-1,27
 173 1162 173 1162 193 1229 c 0,28,29
 230 1353 230 1353 299 1378 c 2,30,-1
 554 1473 l 2,31,32
 566 1478 566 1478 598 1480 c 1,33,-1
 604 1480 l 2,34,35
 637 1480 637 1480 667.5 1458.5 c 128,-1,36
 698 1437 698 1437 709.5 1417 c 128,-1,37
 721 1397 721 1397 721 1347.5 c 128,-1,38
 721 1298 721 1298 702 1279 c 0,39,40
 689 1266 689 1266 674 1266 c 2,41,-1
 672 1266 l 1,42,-1
 669 1266 l 2,43,44
 647 1266 647 1266 612.5 1289 c 128,-1,45
 578 1312 578 1312 537.5 1312 c 128,-1,46
 497 1312 497 1312 465 1280 c 128,-1,47
 433 1248 433 1248 428 1198.5 c 128,-1,48
 423 1149 423 1149 423 1027 c 2,49,-1
 423 -441 l 2,50,51
 423 -480 423 -480 449 -489 c 1,52,-1
 450 -489 l 1,0,1
EndSplineSet
EndChar

StartChar: club
Encoding: 9827 9827 42
Width: 1234
Flags: W
LayerCount: 2
Fore
SplineSet
383 1397 m 132,-1,1
 479 1494 479 1494 616.5 1494 c 132,-1,2
 754 1494 754 1494 851 1397 c 132,-1,3
 948 1300 948 1300 948 1163 c 4,4,5
 948 1063 948 1063 896 984 c 5,6,7
 1025 980 1025 980 1120 885 c 132,-1,8
 1215 790 1215 790 1215 652.5 c 132,-1,9
 1215 515 1215 515 1118 419 c 132,-1,10
 1021 323 1021 323 885 323 c 4,11,12
 805 323 805 323 737 357 c 5,13,14
 779 5 779 5 779 -3 c 4,15,16
 778 -4 778 -4 778 -4 c 4,17,18
 778 -8 778 -8 772 -14 c 132,-1,19
 766 -20 766 -20 758 -20 c 6,20,-1
 477 -20 l 6,21,22
 469 -20 469 -20 463 -14 c 132,-1,23
 457 -8 457 -8 457 -3.5 c 132,-1,24
 457 1 457 1 499 358 c 5,25,26
 430 323 430 323 350 323 c 4,27,28
 212 323 212 323 115.5 420 c 132,-1,29
 19 517 19 517 19 653.5 c 132,-1,30
 19 790 19 790 114 885 c 132,-1,31
 209 980 209 980 339 984 c 5,32,33
 287 1063 287 1063 287 1163 c 4,34,0
 287 1300 287 1300 383 1397 c 132,-1,1
EndSplineSet
EndChar

StartChar: uni258A
Encoding: 9610 9610 43
Width: 1234
Flags: W
LayerCount: 2
Fore
SplineSet
333 1403 m 2,0,-1
 616 1403 l 1,1,-1
 617 1403 l 1,2,-1
 617 1490 l 1,3,-1
 616 1490 l 1,4,-1
 333 1490 l 2,5,6
 330 1490 330 1490 328 1491 c 1,7,-1
 328 1402 l 1,8,9
 330 1403 330 1403 333 1403 c 2,0,-1
333 1146 m 2,10,-1
 616 1146 l 1,11,-1
 617 1146 l 1,12,-1
 617 1234 l 1,13,-1
 616 1234 l 1,14,-1
 333 1234 l 2,15,16
 330 1234 330 1234 328 1235 c 1,17,-1
 328 1145 l 1,18,19
 330 1146 330 1146 333 1146 c 2,10,-1
333 890 m 2,20,-1
 616 890 l 1,21,-1
 617 890 l 1,22,-1
 617 978 l 1,23,-1
 333 978 l 2,24,25
 330 978 330 978 328 979 c 1,26,-1
 328 889 l 1,27,28
 330 890 330 890 333 890 c 2,20,-1
333 634 m 2,29,-1
 616 634 l 1,30,-1
 617 634 l 1,31,-1
 617 722 l 1,32,-1
 333 722 l 2,33,34
 330 722 330 722 328 723 c 1,35,-1
 328 633 l 1,36,37
 330 634 330 634 333 634 c 2,29,-1
333 378 m 2,38,-1
 616 378 l 1,39,-1
 617 378 l 1,40,-1
 617 466 l 1,41,-1
 616 466 l 1,42,-1
 333 466 l 2,43,44
 330 466 330 466 328 467 c 1,45,-1
 328 377 l 1,46,47
 330 378 330 378 333 378 c 2,38,-1
333 122 m 2,48,-1
 616 122 l 1,49,-1
 617 122 l 1,50,-1
 617 210 l 1,51,-1
 616 210 l 1,52,-1
 333 210 l 2,53,54
 330 210 330 210 328 211 c 1,55,-1
 328 121 l 1,56,57
 330 122 330 122 333 122 c 2,48,-1
333 -133 m 2,58,-1
 616 -133 l 1,59,-1
 617 -133 l 1,60,-1
 617 -45 l 1,61,-1
 616 -45 l 1,62,-1
 333 -45 l 2,63,64
 330 -45 330 -45 328 -44 c 1,65,-1
 328 -134 l 1,66,67
 330 -133 330 -133 333 -133 c 2,58,-1
637 -261 m 1,68,-1
 924 -261 l 2,69,70
 929 -261 929 -261 933 -263 c 1,71,-1
 933 -171 l 1,72,73
 929 -173 929 -173 924 -173 c 2,74,-1
 637 -173 l 1,75,-1
 636 -173 l 1,76,-1
 636 -261 l 1,77,-1
 637 -261 l 1,68,-1
637 -5 m 1,78,-1
 924 -5 l 2,79,80
 929 -5 929 -5 933 -7 c 1,81,-1
 933 84 l 1,82,83
 929 82 929 82 924 82 c 2,84,-1
 637 82 l 1,85,-1
 636 82 l 1,86,-1
 636 -5 l 1,87,-1
 637 -5 l 1,78,-1
637 1274 m 1,88,-1
 924 1274 l 2,89,90
 929 1274 929 1274 933 1272 c 1,91,-1
 933 1365 l 1,92,93
 929 1363 929 1363 924 1363 c 2,94,-1
 637 1363 l 1,95,-1
 636 1363 l 1,96,-1
 636 1274 l 1,97,-1
 637 1274 l 1,88,-1
637 1018 m 1,98,-1
 924 1018 l 2,99,100
 929 1018 929 1018 933 1016 c 1,101,-1
 933 1108 l 1,102,103
 929 1106 929 1106 924 1106 c 2,104,-1
 637 1106 l 1,105,-1
 636 1106 l 1,106,-1
 636 1018 l 1,107,-1
 637 1018 l 1,98,-1
637 762 m 1,108,-1
 924 762 l 2,109,110
 929 762 929 762 933 760 c 1,111,-1
 933 852 l 1,112,113
 929 850 929 850 924 850 c 2,114,-1
 637 850 l 1,115,-1
 636 850 l 1,116,-1
 636 762 l 1,117,-1
 637 762 l 1,108,-1
953 -133 m 2,118,-1
 1213 -133 l 2,119,120
 1221 -133 1221 -133 1227 -139 c 128,-1,121
 1233 -145 1233 -145 1233 -153 c 2,122,-1
 1233 -281 l 2,123,124
 1233 -289 1233 -289 1227 -295 c 128,-1,125
 1221 -301 1221 -301 1213 -301 c 2,126,-1
 953 -301 l 2,127,128
 948 -301 948 -301 944 -299 c 1,129,-1
 944 -409 l 2,130,131
 944 -417 944 -417 938 -423 c 128,-1,132
 932 -429 932 -429 924 -429 c 2,133,-1
 637 -429 l 2,134,135
 629 -429 629 -429 623 -423 c 128,-1,136
 617 -417 617 -417 617 -409 c 2,137,-1
 617 -301 l 1,138,-1
 616 -301 l 1,139,-1
 333 -301 l 2,140,141
 330 -301 330 -301 328 -300 c 1,142,-1
 328 -409 l 2,143,144
 328 -417 328 -417 322 -423 c 128,-1,145
 316 -429 316 -429 308 -429 c 2,146,-1
 0 -429 l 2,147,148
 -8 -429 -8 -429 -14 -423 c 128,-1,149
 -20 -417 -20 -417 -20 -409 c 2,150,-1
 -20 -281 l 2,151,152
 -20 -273 -20 -273 -14 -267 c 128,-1,153
 -8 -261 -8 -261 -0 -261 c 2,154,-1
 308 -261 l 2,155,156
 311 -261 311 -261 313 -262 c 1,157,-1
 313 -172 l 1,158,159
 311 -173 311 -173 308 -173 c 2,160,-1
 0 -173 l 2,161,162
 -8 -173 -8 -173 -14 -167 c 128,-1,163
 -20 -161 -20 -161 -20 -153 c 2,164,-1
 -20 -25 l 2,165,166
 -20 -17 -20 -17 -14 -11 c 128,-1,167
 -8 -5 -8 -5 -0 -5 c 2,168,-1
 308 -5 l 2,169,170
 311 -5 311 -5 313 -6 c 1,171,-1
 313 83 l 1,172,173
 311 82 311 82 308 82 c 2,174,-1
 0 82 l 2,175,176
 -8 82 -8 82 -14 88 c 128,-1,177
 -20 94 -20 94 -20 102 c 2,178,-1
 -20 230 l 2,179,180
 -20 238 -20 238 -14 244 c 128,-1,181
 -8 250 -8 250 -0 250 c 2,182,-1
 308 250 l 2,183,184
 311 250 311 250 313 249 c 1,185,-1
 313 339 l 1,186,187
 311 338 311 338 308 338 c 2,188,-1
 0 338 l 2,189,190
 -8 338 -8 338 -14 344 c 128,-1,191
 -20 350 -20 350 -20 358 c 2,192,-1
 -20 486 l 2,193,194
 -20 494 -20 494 -14 500 c 128,-1,195
 -8 506 -8 506 -0 506 c 2,196,-1
 308 506 l 2,197,198
 311 506 311 506 313 505 c 1,199,-1
 313 595 l 1,200,201
 311 594 311 594 308 594 c 2,202,-1
 0 594 l 2,203,204
 -8 594 -8 594 -14 600 c 128,-1,205
 -20 606 -20 606 -20 614 c 2,206,-1
 -20 742 l 2,207,208
 -20 750 -20 750 -14 756 c 128,-1,209
 -8 762 -8 762 -0 762 c 2,210,-1
 308 762 l 2,211,212
 311 762 311 762 313 761 c 1,213,-1
 313 851 l 1,214,215
 311 850 311 850 308 850 c 2,216,-1
 0 850 l 2,217,218
 -8 850 -8 850 -14 856 c 128,-1,219
 -20 862 -20 862 -20 870 c 2,220,-1
 -20 998 l 2,221,222
 -20 1006 -20 1006 -14 1012 c 128,-1,223
 -8 1018 -8 1018 -0 1018 c 2,224,-1
 308 1018 l 2,225,226
 311 1018 311 1018 313 1017 c 1,227,-1
 313 1107 l 1,228,229
 311 1106 311 1106 308 1106 c 2,230,-1
 0 1106 l 2,231,232
 -8 1106 -8 1106 -14 1112 c 128,-1,233
 -20 1118 -20 1118 -20 1126 c 2,234,-1
 -20 1254 l 2,235,236
 -20 1262 -20 1262 -14 1268 c 128,-1,237
 -8 1274 -8 1274 -0 1274 c 2,238,-1
 308 1274 l 2,239,240
 311 1274 311 1274 313 1273 c 1,241,-1
 313 1364 l 1,242,243
 311 1363 311 1363 308 1363 c 2,244,-1
 0 1363 l 2,245,246
 -8 1363 -8 1363 -14 1369 c 128,-1,247
 -20 1375 -20 1375 -20 1383 c 2,248,-1
 -20 1510 l 2,249,250
 -20 1518 -20 1518 -14 1524 c 128,-1,251
 -8 1530 -8 1530 -0 1530 c 2,252,-1
 308 1530 l 2,253,254
 311 1530 311 1530 313 1529 c 1,255,-1
 313 1634 l 2,256,257
 313 1642 313 1642 319 1648 c 128,-1,258
 325 1654 325 1654 333 1654 c 2,259,-1
 616 1654 l 2,260,261
 624 1654 624 1654 630 1648 c 128,-1,262
 636 1642 636 1642 636 1634 c 2,263,-1
 636 1530 l 1,264,-1
 637 1530 l 1,265,-1
 924 1530 l 2,266,267
 929 1530 929 1530 933 1528 c 1,268,-1
 933 1634 l 2,269,270
 933 1642 933 1642 939 1648 c 128,-1,271
 945 1654 945 1654 953 1654 c 2,272,-1
 1213 1654 l 2,273,274
 1221 1654 1221 1654 1227 1648 c 128,-1,275
 1233 1642 1233 1642 1233 1634 c 2,276,-1
 1233 1510 l 2,277,278
 1233 1502 1233 1502 1227 1496 c 128,-1,279
 1221 1490 1221 1490 1213 1490 c 2,280,-1
 953 1490 l 2,281,282
 948 1490 948 1490 944 1492 c 1,283,-1
 944 1401 l 1,284,285
 948 1403 948 1403 953 1403 c 2,286,-1
 1213 1403 l 2,287,288
 1221 1403 1221 1403 1227 1397 c 128,-1,289
 1233 1391 1233 1391 1233 1383 c 2,290,-1
 1233 1254 l 2,291,292
 1233 1246 1233 1246 1227 1240 c 128,-1,293
 1221 1234 1221 1234 1213 1234 c 2,294,-1
 953 1234 l 2,295,296
 948 1234 948 1234 944 1236 c 1,297,-1
 944 1144 l 1,298,299
 948 1146 948 1146 953 1146 c 2,300,-1
 1213 1146 l 2,301,302
 1221 1146 1221 1146 1227 1140 c 128,-1,303
 1233 1134 1233 1134 1233 1126 c 2,304,-1
 1233 998 l 2,305,306
 1233 990 1233 990 1227 984 c 128,-1,307
 1221 978 1221 978 1213 978 c 2,308,-1
 953 978 l 2,309,310
 948 978 948 978 944 980 c 1,311,-1
 944 888 l 1,312,313
 948 890 948 890 953 890 c 2,314,-1
 1213 890 l 2,315,316
 1221 890 1221 890 1227 884 c 128,-1,317
 1233 878 1233 878 1233 870 c 2,318,-1
 1233 742 l 2,319,320
 1233 734 1233 734 1227 728 c 128,-1,321
 1221 722 1221 722 1213 722 c 2,322,-1
 953 722 l 2,323,324
 948 722 948 722 944 724 c 1,325,-1
 944 632 l 1,326,327
 948 634 948 634 953 634 c 2,328,-1
 1213 634 l 2,329,330
 1221 634 1221 634 1227 628 c 128,-1,331
 1233 622 1233 622 1233 614 c 2,332,-1
 1233 486 l 2,333,334
 1233 478 1233 478 1227 472 c 128,-1,335
 1221 466 1221 466 1213 466 c 2,336,-1
 953 466 l 2,337,338
 948 466 948 466 944 468 c 1,339,-1
 944 376 l 1,340,341
 948 378 948 378 953 378 c 2,342,-1
 1213 378 l 2,343,344
 1221 378 1221 378 1227 372 c 128,-1,345
 1233 366 1233 366 1233 358 c 2,346,-1
 1233 230 l 2,347,348
 1233 222 1233 222 1227 216 c 128,-1,349
 1221 210 1221 210 1213 210 c 2,350,-1
 953 210 l 2,351,352
 948 210 948 210 944 212 c 1,353,-1
 944 120 l 1,354,355
 948 122 948 122 953 122 c 2,356,-1
 1213 122 l 2,357,358
 1221 122 1221 122 1227 116 c 128,-1,359
 1233 110 1233 110 1233 102 c 2,360,-1
 1233 -25 l 2,361,362
 1233 -33 1233 -33 1227 -39 c 128,-1,363
 1221 -45 1221 -45 1213 -45 c 2,364,-1
 953 -45 l 2,365,366
 948 -45 948 -45 944 -43 c 1,367,-1
 944 -135 l 1,368,369
 948 -133 948 -133 953 -133 c 2,118,-1
637 506 m 1,370,-1
 924 506 l 2,371,372
 929 506 929 506 933 504 c 1,373,-1
 933 596 l 1,374,375
 929 594 929 594 924 594 c 2,376,-1
 637 594 l 1,377,-1
 636 594 l 1,378,-1
 636 506 l 1,379,-1
 637 506 l 1,370,-1
637 250 m 1,380,-1
 924 250 l 2,381,382
 929 250 929 250 933 248 c 1,383,-1
 933 340 l 1,384,385
 929 338 929 338 924 338 c 2,386,-1
 637 338 l 1,387,-1
 636 338 l 1,388,-1
 636 250 l 1,389,-1
 637 250 l 1,380,-1
EndSplineSet
EndChar

StartChar: uni1D04
Encoding: 7428 7428 44
Width: 966
Flags: W
LayerCount: 2
Fore
SplineSet
890 226 m 0,0,1
 926 226 926 226 926 177 c 0,2,3
 926 175 926 175 925 171 c 2,4,-1
 866 9 l 2,5,6
 863 2 863 2 826 -14 c 0,7,8
 744 -48 744 -48 591 -49 c 0,9,10
 378 -49 378 -49 212.5 86.5 c 128,-1,11
 47 222 47 222 47 458.5 c 128,-1,12
 47 695 47 695 208 835.5 c 128,-1,13
 369 976 369 976 591 976 c 0,14,15
 794 976 794 976 931 890 c 0,16,17
 940 884 940 884 940 878 c 128,-1,18
 940 872 940 872 932 801 c 2,19,-1
 924 730 l 1,20,21
 919 701 919 701 891 701 c 2,22,-1
 888 701 l 2,23,24
 865 701 865 701 853 732 c 0,25,26
 792 862 792 862 615 862 c 0,27,28
 513 862 513 862 437 809 c 0,29,30
 270 695 270 695 270 465 c 0,31,32
 270 464 270 464 270 462 c 0,33,34
 270 293 270 293 389 176 c 0,35,36
 486 79 486 79 641 70 c 1,37,-1
 646 69 l 1,38,39
 646 69 646 69 660 69 c 0,40,41
 795 69 795 69 853 196 c 0,42,43
 865 222 865 222 884 226 c 1,44,45
 884 226 884 226 890 226 c 0,0,1
EndSplineSet
EndChar
